<?xml version="1.0" encoding="utf-8"?>
<!-- Generator: Adobe Illustrator 20.0.0, SVG Export Plug-In . SVG Version: 6.00 Build 0)  -->
<svg version="1.1" id="レイヤー_1" xmlns="http://www.w3.org/2000/svg" xmlns:xlink="http://www.w3.org/1999/xlink" x="0px"
	 y="0px" viewBox="0 0 405 103.5" style="enable-background:new 0 0 405 103.5;" xml:space="preserve">
<style type="text/css">
	.st0{fill:#333333;}
	.st1{fill:#0096DF;}
	.st2{fill:#DA007F;}
	.st3{fill:#FFE700;}
	.st4{fill:none;stroke:#222829;stroke-linejoin:round;stroke-miterlimit:10;}
	.st5{fill:none;stroke:#222829;stroke-miterlimit:10;}
</style>
<g>
	<g>
		<path class="st0" d="M176.3,46.5c-0.6,0.8-1.2,1.5-2.1,2.3c-0.8,0.7-1.9,1.6-2.8,2.1c-0.1,0.1-0.2,0.1-0.3,0.1
			c-0.1,0-0.2,0-0.3-0.2c-0.3-0.4-0.8-0.7-1.2-0.9c1.5-0.8,2.5-1.5,3.5-2.4c0.9-0.8,1.6-1.5,2.2-2.3l-2.6,0c-0.8,0-1.6,0-2.4,0.1
			c-0.1,0-0.2-0.1-0.2-0.3c-0.1-0.3-0.1-0.9-0.1-1.5c0.9,0.1,1.8,0.1,2.7,0.1h3.6l-0.1-1.3c0-0.8-0.1-1.3-0.2-1.8
			c0.8,0,1.4,0.1,1.9,0.2c0.2,0,0.2,0.1,0.2,0.2c0,0.1,0,0.1-0.1,0.2c0,0.2-0.1,0.4-0.1,1.4l0,1.1h1.3c1,0,1.8,0,2.9-0.1
			c0.1,0,0.2,0.1,0.2,0.2c0,0.4,0,0.9,0,1.3c0,0.1-0.1,0.2-0.2,0.2c-1.1,0-2-0.1-2.9-0.1H178l0.3,5.6c0,0.8-0.2,1.3-0.7,1.6
			c-0.5,0.3-1.4,0.5-2.1,0.5c-0.3,0-0.4-0.1-0.5-0.3c-0.2-0.6-0.5-0.9-1.1-1.3c1.1,0,1.6,0,2.1-0.2c0.3-0.1,0.5-0.2,0.4-0.9
			L176.3,46.5z"/>
		<path class="st0" d="M186.5,42.1c0.1-0.1,0.1-0.1,0.2-0.1c0.1,0,0.1,0,0.2,0.1c0.8,0.4,2,1.3,2.9,2.1c0.1,0.1,0.1,0.2,0.1,0.2
			s0,0.1-0.1,0.2c-0.2,0.3-0.7,0.9-0.9,1.1c-0.1,0.1-0.1,0.1-0.2,0.1c-0.1,0-0.1,0-0.2-0.1c-0.9-0.9-2-1.8-3.1-2.4
			C185.8,42.8,186.2,42.4,186.5,42.1z M187.8,50c1.8-0.9,2.8-1.6,4.3-2.8c1.8-1.5,2.8-2.4,4.1-4.1c0.1,0.8,0.2,1.3,0.4,1.8
			c0,0.1,0.1,0.2,0.1,0.3c0,0.1-0.1,0.3-0.2,0.5c-0.8,0.9-2.1,2.1-3.5,3.2c-1.2,1-2.5,1.8-4.5,2.9c-0.7,0.4-0.9,0.6-1,0.7
			c-0.1,0.1-0.2,0.1-0.3,0.1c-0.1,0-0.2-0.1-0.3-0.2c-0.4-0.4-0.8-1-1.2-1.7C186.6,50.5,187,50.4,187.8,50z"/>
		<path class="st0" d="M203.5,46c-0.8,0-1.5,0-2.2,0.1c-0.1,0-0.2-0.1-0.2-0.3c-0.1-0.4-0.1-0.9-0.2-1.5c0.9,0.1,1.8,0.1,2.8,0.1
			h5.1c0.3,0,0.6,0,0.8-0.2c0.1-0.1,0.1-0.1,0.2-0.1c0.1,0,0.1,0,0.2,0.1c0.4,0.3,0.8,0.7,1,0.9c0.1,0.1,0.2,0.2,0.2,0.3
			c0,0.1,0,0.2-0.2,0.3c-0.2,0.2-0.3,0.4-0.5,0.7c-1.5,3.2-3.2,5.1-6.1,6.6c-0.1,0.1-0.2,0.1-0.3,0.1c-0.1,0-0.2-0.1-0.3-0.2
			c-0.4-0.4-0.9-0.6-1.4-0.8c2.8-1.3,5.2-3.4,6.3-6.3L203.5,46z M204.5,42.8c-0.7,0-1.4,0-2.1,0.1c-0.2,0-0.2-0.1-0.2-0.3
			c0-0.3-0.1-1-0.1-1.4c0.9,0.1,1.4,0.1,2.5,0.1h2.7c1,0,1.8,0,2.4-0.1c0.1,0,0.2,0.1,0.2,0.2c0,0.4,0,0.8,0,1.2
			c0,0.3,0,0.3-0.3,0.3c-0.5,0-1.2,0-2.1,0H204.5z"/>
		<path class="st0" d="M222.7,49.8c0,1,0,1.9,0,3.1c0,0.2-0.1,0.3-0.2,0.3c-0.5,0-1,0-1.5,0c-0.2,0-0.2-0.1-0.2-0.2
			c0-1.1,0.1-2.1,0.1-3.1v-3.5c-1.3,1.1-2.9,2.2-4.1,2.9c-0.1,0-0.1,0.1-0.2,0.1c-0.1,0-0.2,0-0.3-0.2c-0.3-0.3-0.8-0.6-1.3-0.9
			c2.1-1.1,3.3-1.9,4.7-3.1c1.2-1,2.3-2,3.2-3.1c0.5-0.6,0.7-0.9,0.9-1.5c0.7,0.4,1.3,0.8,1.7,1.1c0.1,0.1,0.1,0.1,0.1,0.2
			c0,0.1-0.1,0.3-0.2,0.3c-0.3,0.2-0.5,0.4-0.9,0.8c-0.6,0.7-1.1,1.3-1.8,1.9V49.8z"/>
		<path class="st0" d="M231.5,42.1c0.1-0.1,0.1-0.1,0.2-0.1c0.1,0,0.1,0,0.2,0.1c0.8,0.4,2,1.3,2.9,2.1c0.1,0.1,0.1,0.2,0.1,0.2
			s0,0.1-0.1,0.2c-0.2,0.3-0.7,0.9-0.9,1.1c-0.1,0.1-0.1,0.1-0.2,0.1c-0.1,0-0.1,0-0.2-0.1c-0.9-0.9-2-1.8-3.1-2.4
			C230.8,42.8,231.2,42.4,231.5,42.1z M232.8,50c1.8-0.9,2.8-1.6,4.3-2.8c1.8-1.5,2.8-2.4,4.1-4.1c0.1,0.8,0.2,1.3,0.4,1.8
			c0,0.1,0.1,0.2,0.1,0.3c0,0.1-0.1,0.3-0.2,0.5c-0.8,0.9-2.1,2.1-3.5,3.2c-1.2,1-2.5,1.8-4.5,2.9c-0.7,0.4-0.9,0.6-1,0.7
			c-0.1,0.1-0.2,0.1-0.3,0.1c-0.1,0-0.2-0.1-0.3-0.2c-0.4-0.4-0.8-1-1.2-1.7C231.6,50.5,232,50.4,232.8,50z"/>
		<path class="st0" d="M248,44.2c-1,0-1.8,0-2.5,0.1c-0.2,0-0.3-0.1-0.3-0.3c0-0.3-0.1-1.1-0.1-1.5c0.7,0.1,1.5,0.1,2.9,0.1h5.4
			c0.5,0,0.6,0,0.8-0.1c0.1,0,0.2-0.1,0.2-0.1c0.1,0,0.2,0,0.3,0.1c0.4,0.3,0.8,0.6,1.1,1c0.1,0.1,0.1,0.2,0.1,0.3
			c0,0.1-0.1,0.3-0.2,0.4c-0.1,0.1-0.2,0.3-0.3,0.6c-0.7,1.8-1.7,3.4-2.9,4.9c-1.3,1.5-2.7,2.7-4.3,3.6c-0.1,0.1-0.3,0.1-0.4,0.1
			c-0.1,0-0.3,0-0.4-0.2c-0.3-0.3-0.8-0.6-1.4-0.8c2.2-1.1,3.5-2.1,4.9-3.8c1.2-1.3,1.9-2.6,2.5-4.3H248z M255.4,40.6
			c0.1-0.1,0.1,0,0.2,0c0.5,0.4,1,1,1.4,1.6c0.1,0.1,0.1,0.2,0,0.2l-0.6,0.4c-0.1,0.1-0.2,0.1-0.3,0c-0.5-0.7-0.9-1.3-1.5-1.7
			L255.4,40.6z M256.6,39.7c0.1-0.1,0.1,0,0.2,0c0.6,0.4,1.1,1,1.4,1.5c0.1,0.1,0.1,0.2,0,0.3l-0.5,0.4c0,0-0.1,0.1-0.1,0.1
			c-0.1,0-0.1,0-0.1-0.1c-0.4-0.6-0.9-1.2-1.5-1.7L256.6,39.7z"/>
		<path class="st0" d="M261.6,44.9c0.2-0.1,0.3-0.1,0.4,0.1c0.5,0.7,1,1.4,1.3,2.2c0,0.1,0.1,0.2,0.1,0.2c0,0.1-0.1,0.1-0.2,0.2
			c-0.4,0.2-0.6,0.3-1,0.5c-0.2,0.1-0.3,0-0.4-0.2c-0.3-0.9-0.8-1.7-1.4-2.4C261,45.2,261.3,45.1,261.6,44.9z M269.9,45.1
			c0.1,0.1,0.2,0.2,0.2,0.3s0,0.2-0.2,0.3c-0.2,0.2-0.3,0.5-0.4,0.8c-0.6,1.5-1.4,2.9-2.3,4c-1,1.3-1.8,2.1-3.1,2.9
			c-0.1,0.1-0.2,0.2-0.4,0.2c-0.1,0-0.2,0-0.2-0.1c-0.4-0.3-0.7-0.5-1.3-0.6c1.8-1.2,2.7-1.9,3.6-3.1c0.8-1,1.6-2.4,2-3.6
			c0.2-0.6,0.3-0.9,0.3-1.6C268.8,44.6,269.5,44.9,269.9,45.1z M264.7,44.2c0.2-0.1,0.3-0.1,0.4,0.1c0.4,0.5,0.9,1.5,1.2,2.2
			c0.1,0.2,0,0.3-0.2,0.4c-0.3,0.2-0.6,0.3-1,0.5c-0.2,0.1-0.2,0-0.3-0.2c-0.3-0.9-0.7-1.6-1.3-2.4
			C264.1,44.5,264.4,44.3,264.7,44.2z"/>
		<path class="st0" d="M281.8,42.9c0.4,0,0.6-0.1,0.8-0.2c0.1,0,0.1-0.1,0.2-0.1s0.2,0,0.2,0.1c0.4,0.2,0.7,0.5,1,0.8
			c0.1,0.1,0.2,0.2,0.2,0.3c0,0.1-0.1,0.2-0.2,0.3c-0.2,0.2-0.4,0.4-0.5,0.6c-1,2-2,3.5-3,4.6c-1.3,1.5-3.1,2.9-4.6,3.7
			c-0.1,0.1-0.2,0.1-0.2,0.1c-0.1,0-0.2-0.1-0.3-0.2c-0.4-0.3-0.8-0.5-1.4-0.7c2.3-1.3,3.5-2.2,5-3.8c1.2-1.3,1.9-2.3,2.8-4.3
			l-3.6,0.1c-1.2,1.5-2,2.4-2.8,3.1c-0.1,0.1-0.2,0.2-0.3,0.2c-0.1,0-0.2,0-0.2-0.1c-0.4-0.3-0.9-0.5-1.4-0.6c2-1.6,3.1-3,4-4.5
			c0.5-0.8,0.7-1.3,0.9-2c0.9,0.3,1.4,0.6,1.8,0.8c0.1,0.1,0.1,0.2,0.1,0.3c0,0.1,0,0.2-0.2,0.3c-0.1,0.1-0.3,0.3-0.4,0.4
			c-0.2,0.3-0.3,0.5-0.5,0.8L281.8,42.9z"/>
		<path class="st0" d="M295.9,42.2c0.5,0,0.8,0,1-0.1c0.1,0,0.1-0.1,0.2-0.1c0.1,0,0.2,0.1,0.3,0.1c0.3,0.3,0.7,0.7,1,1.1
			c0,0.1,0.1,0.1,0.1,0.2c0,0.1-0.1,0.2-0.2,0.3c-0.2,0.2-0.4,0.4-0.6,0.7c-0.6,1-1.2,1.9-1.9,2.8c1.4,1.1,2.8,2.2,4.2,3.6
			c0.1,0.1,0.1,0.2,0.1,0.2c0,0.1,0,0.1-0.1,0.2c-0.3,0.3-0.6,0.7-1,1c-0.1,0.1-0.1,0.1-0.2,0.1c-0.1,0-0.1,0-0.2-0.1
			c-1.3-1.5-2.5-2.7-3.9-3.7c-1.7,1.8-3.4,3-5,4c-0.1,0.1-0.2,0.1-0.3,0.1c-0.1,0-0.2,0-0.3-0.1c-0.3-0.4-0.8-0.7-1.3-1
			c2.3-1.2,3.7-2.2,5.3-3.8c1.1-1.1,1.9-2.2,2.8-3.8l-3.9,0c-0.8,0-1.6,0-2.4,0.1c-0.1,0-0.2-0.1-0.2-0.3c-0.1-0.3-0.1-1-0.1-1.6
			c0.8,0.1,1.6,0.1,2.5,0.1H295.9z"/>
		<path class="st0" d="M307.1,44.9c1.8,0.6,3.3,1.2,4.8,2c0.2,0.1,0.2,0.2,0.2,0.4c-0.2,0.5-0.4,1-0.6,1.3c-0.1,0.1-0.1,0.2-0.2,0.2
			c0,0-0.1,0-0.2-0.1c-1.4-0.9-2.7-1.5-3.9-1.9v3.3c0,1,0,1.9,0.1,2.9c0,0.2-0.1,0.2-0.3,0.2c-0.4,0-0.9,0-1.3,0
			c-0.2,0-0.3,0-0.3-0.2c0-1.1,0.1-2,0.1-3v-7.4c0-1.1,0-1.6-0.1-2.2c0.7,0,1.4,0.1,1.9,0.2c0.2,0,0.3,0.1,0.3,0.3
			c0,0.1,0,0.2-0.1,0.3c-0.1,0.2-0.1,0.6-0.1,1.4V44.9z"/>
		<path class="st0" d="M319.2,43.4c-0.9,0-1.8,0.1-2.7,0.1c-0.2,0-0.2-0.1-0.3-0.2c-0.1-0.4-0.2-1.2-0.3-1.6c1,0.1,1.8,0.1,3,0.1
			h6.4c0.6,0,0.9,0,1-0.1c0.1,0,0.2-0.1,0.3-0.1c0.1,0,0.2,0.1,0.3,0.2c0.3,0.3,0.6,0.6,0.9,0.9c0.1,0.1,0.1,0.2,0.1,0.3
			c0,0.1-0.1,0.2-0.2,0.3c-0.2,0.1-0.3,0.3-0.4,0.4c-0.7,1.1-1.6,2.1-2.6,2.9c-0.1,0.1-0.2,0.1-0.3,0.1s-0.3-0.1-0.4-0.2
			c-0.4-0.3-0.8-0.5-1.2-0.6c1.2-0.9,1.9-1.5,2.7-2.6H319.2z M320,49.2c0.6-1.1,0.7-2.1,0.7-3.5c0-0.6,0-0.9-0.2-1.4
			c0.7,0.1,1.5,0.2,1.9,0.3c0.2,0,0.3,0.2,0.3,0.3c0,0.1,0,0.2-0.1,0.3c-0.1,0.2-0.1,0.4-0.1,0.6c0,1.5-0.2,2.8-0.9,4.1
			c-0.6,1.1-1.5,2.2-2.7,3c-0.1,0.1-0.3,0.2-0.4,0.2c-0.1,0-0.2,0-0.3-0.1c-0.4-0.3-0.8-0.6-1.4-0.8C318.5,51.3,319.4,50.4,320,49.2
			z"/>
	</g>
</g>
<g>
	<g>
		<path class="st0" d="M177.9,82.3v-7.8c0-1.4-1-1.7-1.5-1.7s-1.5,0.3-1.5,1.7v7.8h-3.9V65.2h3.9v5.2c0.8-0.8,1.8-1.2,2.8-1.2
			c2.8,0,4.1,2.1,4.1,4.7v8.4H177.9z"/>
		<path class="st0" d="M191,82.3v-1.1c-0.8,0.8-1.5,1.2-2.9,1.2c-1.3,0-2.4-0.4-3.1-1.2c-0.7-0.7-1.1-1.8-1.1-3
			c0-1.9,1.3-3.7,4.4-3.7h2.6v-0.3c0-1.2-0.6-1.6-1.9-1.6c-1,0-1.4,0.2-2.1,0.9l-2.4-2.4c1.3-1.3,2.5-1.7,4.7-1.7
			c3.7,0,5.7,1.5,5.7,4.7v8.4H191z M190.9,77.1h-2c-0.8,0-1.2,0.4-1.2,1c0,0.6,0.4,1.1,1.3,1.1c0.8,0,1.1-0.1,1.6-0.5
			c0.3-0.3,0.4-0.7,0.4-1.3V77.1z"/>
		<path class="st0" d="M201.9,82.3c-2.9,0-4-2-4-3.8v-5.6h-1.2v-3h1.2v-3.7h3.9v3.7h2v3h-2v5.3c0,0.5,0.3,0.8,0.8,0.8h1.2v3.3H201.9
			z"/>
		<path class="st0" d="M208.2,68.8c-1.3,0-2.4-1.1-2.4-2.4s1.1-2.4,2.4-2.4s2.4,1.1,2.4,2.4S209.6,68.8,208.2,68.8z M206.3,82.3
			V69.9h3.9v12.4H206.3z"/>
		<path class="st0" d="M220.1,82.3v-1.1c-0.8,0.8-1.6,1.2-3,1.2c-1.2,0-2.4-0.4-3.1-1.2c-1.3-1.3-1.2-3.5-1.2-5.4
			c0-1.9-0.1-4.2,1.2-5.4c0.7-0.7,1.9-1.2,3.1-1.2c1.3,0,2.2,0.4,2.9,1.1v-5.1h3.9v17.1H220.1z M218.3,72.8c-1.5,0-1.6,1.2-1.6,3
			c0,1.9,0.2,3,1.6,3s1.6-1.2,1.6-3C219.9,74,219.8,72.8,218.3,72.8z"/>
		<path class="st0" d="M236.1,80.8c-0.8,0.8-2.1,1.7-4.2,1.7c-2.1,0-3.4-0.8-4.2-1.7c-1.1-1.2-1.4-2.4-1.4-4.9
			c0-2.5,0.3-3.8,1.4-4.9c0.8-0.8,2.1-1.7,4.2-1.7c2.1,0,3.4,0.8,4.2,1.7c1.1,1.2,1.4,2.4,1.4,4.9C237.5,78.4,237.2,79.6,236.1,80.8
			z M233,73.1c-0.2-0.2-0.6-0.4-1.1-0.4c-0.5,0-0.8,0.1-1.1,0.4c-0.5,0.5-0.6,1.4-0.6,2.7c0,1.3,0.1,2.2,0.6,2.7
			c0.2,0.2,0.6,0.4,1.1,0.4c0.5,0,0.8-0.1,1.1-0.4c0.5-0.5,0.6-1.4,0.6-2.7C233.6,74.6,233.5,73.6,233,73.1z"/>
		<path class="st0" d="M247,73.5c-0.4-0.4-0.7-0.7-1.4-0.7c-0.5,0-1.6,0.3-1.6,1.8v7.7H240V69.4h3.8v1.1c0.6-0.6,1.7-1.2,3-1.2
			c1.3,0,2.1,0.3,3,1.2L247,73.5z"/>
		<path class="st0" d="M253.4,68.8c-1.3,0-2.4-1.1-2.4-2.4s1.1-2.4,2.4-2.4s2.4,1.1,2.4,2.4S254.7,68.8,253.4,68.8z M251.4,82.3
			V69.9h3.9v12.4H251.4z"/>
		<path class="st0" d="M273.6,81.3c-0.7,0.7-1.9,1.2-3.1,1.2c-1.3,0-2.2-0.4-3-1.2v1.1h-3.8V65.2h3.9v5.1c0.7-0.7,1.6-1.1,2.9-1.1
			c1.2,0,2.4,0.4,3.1,1.2c1.3,1.3,1.2,3.5,1.2,5.4C274.8,77.7,274.9,80,273.6,81.3z M269.3,72.8c-1.5,0-1.6,1.2-1.6,3
			c0,1.9,0.2,3,1.6,3c1.5,0,1.6-1.2,1.6-3C270.9,74,270.7,72.8,269.3,72.8z"/>
		<path class="st0" d="M286.6,80.8c-0.8,0.8-2.1,1.7-4.2,1.7c-2.1,0-3.4-0.8-4.2-1.7c-1.1-1.2-1.4-2.4-1.4-4.9
			c0-2.5,0.3-3.8,1.4-4.9c0.8-0.8,2.1-1.7,4.2-1.7c2.1,0,3.4,0.8,4.2,1.7c1.1,1.2,1.4,2.4,1.4,4.9C288,78.4,287.7,79.6,286.6,80.8z
			 M283.5,73.1c-0.2-0.2-0.6-0.4-1.1-0.4c-0.5,0-0.8,0.1-1.1,0.4c-0.5,0.5-0.6,1.4-0.6,2.7c0,1.3,0.1,2.2,0.6,2.7
			c0.2,0.2,0.6,0.4,1.1,0.4c0.5,0,0.8-0.1,1.1-0.4c0.5-0.5,0.6-1.4,0.6-2.7C284.1,74.6,284,73.6,283.5,73.1z"/>
		<path class="st0" d="M299.8,80.8c-0.8,0.8-2.1,1.7-4.2,1.7c-2.1,0-3.4-0.8-4.2-1.7c-1.1-1.2-1.4-2.4-1.4-4.9
			c0-2.5,0.3-3.8,1.4-4.9c0.8-0.8,2.1-1.7,4.2-1.7c2.1,0,3.4,0.8,4.2,1.7c1.1,1.2,1.4,2.4,1.4,4.9C301.2,78.4,300.9,79.6,299.8,80.8
			z M296.7,73.1c-0.2-0.2-0.6-0.4-1.1-0.4c-0.5,0-0.8,0.1-1.1,0.4c-0.5,0.5-0.6,1.4-0.6,2.7c0,1.3,0.1,2.2,0.6,2.7
			c0.2,0.2,0.6,0.4,1.1,0.4c0.5,0,0.8-0.1,1.1-0.4c0.5-0.5,0.6-1.4,0.6-2.7C297.3,74.6,297.2,73.6,296.7,73.1z"/>
		<path class="st0" d="M311.1,82.3l-2.7-4.7l-0.8,0.8v3.9h-3.9V65.2h3.9v8.7l3.5-4.5h4.7l-4.8,5.4l4.9,7.6H311.1z"/>
		<path class="st0" d="M321.9,82.4c-1.9,0-3.8-0.1-5.6-1.9l2.5-2.5c1.1,1.1,2.5,1.1,3.1,1.1c0.6,0,1.7-0.2,1.7-0.8
			c0-0.4-0.2-0.7-0.9-0.8l-2-0.2c-2.2-0.2-3.7-1.2-3.7-3.7c0-2.9,2.6-4.3,5.1-4.3c2.1,0,3.8,0.3,5.1,1.6l-2.4,2.4
			c-0.6-0.6-1.7-0.8-2.7-0.8c-1,0-1.3,0.5-1.3,0.7c0,0.1,0,0.6,0.8,0.7l2,0.2c2.7,0.3,3.9,1.9,3.9,3.9
			C327.4,81.1,324.9,82.4,321.9,82.4z"/>
	</g>
</g>
<g>
	
		<ellipse transform="matrix(9.575114e-02 -0.9954 0.9954 9.575114e-02 -14.6893 67.3038)" class="st1" cx="29.7" cy="41.7" rx="3.5" ry="3.5"/>
	
		<ellipse transform="matrix(9.575114e-02 -0.9954 0.9954 9.575114e-02 -42.3924 77.934)" class="st1" cx="21.7" cy="62.3" rx="2.7" ry="2.7"/>
	
		<ellipse transform="matrix(9.575114e-02 -0.9954 0.9954 9.575114e-02 -64.4931 96.2879)" class="st1" cx="20.8" cy="83.6" rx="0.4" ry="0.4"/>
	
		<ellipse transform="matrix(9.575114e-02 -0.9954 0.9954 9.575114e-02 -38.0434 93.0819)" class="st1" cx="32.2" cy="67.5" rx="2.3" ry="2.3"/>
	
		<ellipse transform="matrix(9.575114e-02 -0.9954 0.9954 9.575114e-02 -17.8692 57.5861)" class="st2" cx="22.8" cy="38.6" rx="5.9" ry="5.9"/>
	
		<ellipse transform="matrix(9.575114e-02 -0.9954 0.9954 9.575114e-02 5.5661 74.5267)" class="st2" cx="43.8" cy="34.2" rx="2.5" ry="2.5"/>
	
		<ellipse transform="matrix(9.575114e-02 -0.9954 0.9954 9.575114e-02 -42.7985 95.3371)" class="st2" cx="31.1" cy="71.2" rx="3.1" ry="3.1"/>
	
		<ellipse transform="matrix(9.575114e-02 -0.9954 0.9954 9.575114e-02 -64.3131 98.6)" class="st2" cx="22.1" cy="84.7" rx="0.5" ry="0.5"/>
	
		<ellipse transform="matrix(9.575114e-02 -0.9954 0.9954 9.575114e-02 -22.738 80.332)" class="st2" cx="32.8" cy="52.7" rx="1.6" ry="1.6"/>
	
		<ellipse transform="matrix(9.575114e-02 -0.9954 0.9954 9.575114e-02 1.9864 73.8672)" class="st3" cx="41.7" cy="35.8" rx="1.8" ry="1.8"/>
	
		<ellipse transform="matrix(9.575114e-02 -0.9954 0.9954 9.575114e-02 -40.1424 90.0149)" class="st3" cx="29.5" cy="67.1" rx="0.9" ry="0.9"/>
	
		<ellipse transform="matrix(9.575114e-02 -0.9954 0.9954 9.575114e-02 -31.7437 80.742)" class="st3" cx="28.6" cy="57.8" rx="7.3" ry="7.3"/>
	
		<ellipse transform="matrix(9.575114e-02 -0.9954 0.9954 9.575114e-02 -61.1062 93.9912)" class="st3" cx="21.2" cy="80.6" rx="1.2" ry="1.2"/>
	
		<ellipse transform="matrix(9.575114e-02 -0.9954 0.9954 9.575114e-02 10.1327 194.4807)" class="st1" cx="112.1" cy="91.7" rx="0.4" ry="0.4"/>
	
		<ellipse transform="matrix(9.575114e-02 -0.9954 0.9954 9.575114e-02 34.4001 189.8679)" class="st1" cx="121.7" cy="76" rx="1.1" ry="1.1"/>
	
		<ellipse transform="matrix(9.575114e-02 -0.9954 0.9954 9.575114e-02 31.8274 193.53)" class="st2" cx="122.4" cy="79.2" rx="3.1" ry="3.1"/>
	
		<ellipse transform="matrix(9.575114e-02 -0.9954 0.9954 9.575114e-02 10.3128 196.7929)" class="st2" cx="113.5" cy="92.7" rx="0.5" ry="0.5"/>
	
		<ellipse transform="matrix(9.575114e-02 -0.9954 0.9954 9.575114e-02 34.4834 188.2077)" class="st3" cx="120.8" cy="75.1" rx="0.9" ry="0.9"/>
	
		<ellipse transform="matrix(9.575114e-02 -0.9954 0.9954 9.575114e-02 13.5197 192.1841)" class="st3" cx="112.5" cy="88.7" rx="1.2" ry="1.2"/>
</g>
<g>
	
		<ellipse transform="matrix(9.575114e-02 -0.9954 0.9954 9.575114e-02 43.8713 193.9022)" class="st1" cx="128.7" cy="72.8" rx="2.9" ry="2.9"/>
	
		<ellipse transform="matrix(9.575114e-02 -0.9954 0.9954 9.575114e-02 111.4087 195.1488)" class="st1" cx="163.1" cy="36.3" rx="0.4" ry="0.4"/>
	
		<ellipse transform="matrix(9.575114e-02 -0.9954 0.9954 9.575114e-02 89.1868 207.537)" class="st2" cx="158.8" cy="54.7" rx="1.6" ry="1.6"/>
	
		<ellipse transform="matrix(9.575114e-02 -0.9954 0.9954 9.575114e-02 31.6877 199.462)" class="st3" cx="125.6" cy="82.3" rx="0.8" ry="0.8"/>
	
		<ellipse transform="matrix(9.575114e-02 -0.9954 0.9954 9.575114e-02 113.9992 197.9266)" class="st3" cx="165.9" cy="36.2" rx="1.3" ry="1.3"/>
</g>
<g>
	
		<ellipse transform="matrix(9.575114e-02 -0.9954 0.9954 9.575114e-02 -47.5547 81.6982)" class="st1" cx="21.2" cy="67" rx="0.4" ry="0.4"/>
	
		<ellipse transform="matrix(9.575114e-02 -0.9954 0.9954 9.575114e-02 -69.7766 94.0864)" class="st2" cx="16.9" cy="85.4" rx="1.6" ry="1.6"/>
	
		<ellipse transform="matrix(9.575114e-02 -0.9954 0.9954 9.575114e-02 -44.9642 84.476)" class="st3" cx="24" cy="67" rx="1.3" ry="1.3"/>
</g>
<circle class="st1" cx="128.2" cy="50.7" r="2.9"/>
<circle class="st2" cx="134.1" cy="52.7" r="4.9"/>
<circle class="st2" cx="118" cy="57.9" r="1.9"/>
<circle class="st2" cx="124.8" cy="43.4" r="1.2"/>
<circle class="st3" cx="119.5" cy="56.5" r="1.4"/>
<circle class="st3" cx="128.4" cy="38.5" r="6.3"/>
<g>
	<g>
		<line class="st4" x1="359.7" y1="56.1" x2="351.4" y2="64.4"/>
		<line class="st4" x1="364.5" y1="56.1" x2="372.8" y2="64.4"/>
		<g>
			<path class="st4" d="M357.2,79.9v-5.3v-3.2c0,0,0.3,0,1.3,0h0.6c1,0,2.1,0.4,2.1,1.4v1.8c0,1-1.1,1.8-2.1,1.8h-2.4"/>
			<line class="st4" x1="363.7" y1="75.4" x2="366.7" y2="75.4"/>
			<polyline class="st4" points="370.2,79.9 370.2,71 374.2,79.3 374.2,70.9 			"/>
			<path class="st4" d="M367.7,79.4h-3.8c-0.3,0-0.7-0.3-0.7-0.7v-7.2c0-0.3,0.4-0.2,0.7-0.2h3.8"/>
			<path class="st4" d="M354.2,78.2c0,0.7-0.5,1.2-1.2,1.2h-1.6c-0.7,0-1.2-0.5-1.2-1.2v-5.6c0-0.7,0.5-1.2,1.2-1.2h1.6
				c0.7,0,1.2,0.5,1.2,1.2V78.2z"/>
		</g>
		<line class="st4" x1="378.7" y1="66.4" x2="377.7" y2="66.4"/>
		<line class="st4" x1="378.7" y1="83.4" x2="377.7" y2="83.4"/>
		<line class="st4" x1="346.7" y1="83.4" x2="345.7" y2="83.4"/>
		<line class="st4" x1="346.7" y1="66.4" x2="345.7" y2="66.4"/>
		<path class="st4" d="M380.2,84.2c0,0.7-0.5,1.2-1.2,1.2h-34.6c-0.7,0-1.2-0.5-1.2-1.2V65.6c0-0.7,0.5-1.2,1.2-1.2H379
			c0.7,0,1.2,0.5,1.2,1.2V84.2z"/>
		<circle class="st4" cx="362.1" cy="54.9" r="2.4"/>
		<line class="st4" x1="347.7" y1="66.4" x2="376.7" y2="66.4"/>
		<line class="st4" x1="378.2" y1="68.9" x2="378.2" y2="81.9"/>
		<line class="st4" x1="376.7" y1="83.4" x2="347.7" y2="83.4"/>
		<line class="st4" x1="346.2" y1="81.9" x2="346.2" y2="68.9"/>
	</g>
</g>
<g>
	<line class="st4" x1="328.8" y1="103" x2="328.8" y2="97"/>
	<path class="st4" d="M332.8,97.9c0,2.2-1.8,3-4,3s-4-0.8-4-3c0-2.2,4-6.9,4-6.9S332.8,95.7,332.8,97.9z"/>
</g>
<g>
	<polyline class="st5" points="26,102.7 0.5,102.7 0.5,0.5 404.5,0.5 404.5,102.7 343.2,102.7 	"/>
	<line class="st5" x1="0.5" y1="12.5" x2="404.5" y2="12.5"/>
	<line class="st5" x1="6.5" y1="6.5" x2="9.5" y2="6.5"/>
	<line class="st5" x1="12.5" y1="6.5" x2="15.5" y2="6.5"/>
	<line class="st5" x1="18.5" y1="6.5" x2="24.5" y2="6.5"/>
	<line class="st5" x1="29.1" y1="0.5" x2="29.1" y2="12.5"/>
	<line class="st5" x1="33.6" y1="6.5" x2="398.5" y2="6.5"/>
	<polyline class="st5" points="26.5,95.2 8,95.2 8,20 397,20 397,95.2 353.2,95.2 	"/>
	<path class="st5" d="M86,50.8c0,1.8-1.4,3.2-3.2,3.2h-0.6c-1.8,0-3.2-1.4-3.2-3.2v-6.6c0-1.8,1.4-3.2,3.2-3.2h0.6
		c1.8,0,3.2,1.4,3.2,3.2V50.8z"/>
	<line class="st5" x1="68.5" y1="40.5" x2="68.5" y2="54.5"/>
	<line class="st5" x1="75.5" y1="40.5" x2="75.5" y2="54.5"/>
	<line class="st5" x1="68.5" y1="47" x2="75.5" y2="47"/>
	<path class="st5" d="M89,47h4.5c1.2,0,1-0.5,1-1.7v-2.1c0-1.2,0.2-2.1-1-2.1h-4v13.5"/>
	<path class="st5" d="M99.5,54.9c0,1.2-1,2.1-2.1,2.1H54.7c-1.2,0-2.1-1-2.1-2.1V39.1c0-1.2,1-2.1,2.1-2.1h42.7c1.2,0,2.1,1,2.1,2.1
		V54.9z"/>
	<g>
		<line class="st4" x1="47.5" y1="75.5" x2="47.5" y2="67.5"/>
		<polyline class="st4" points="104.5,67.5 104.5,98 61,98 		"/>
		<path class="st4" d="M49.6,59.5v5.1c0,1.8-0.7,3.2-2.5,3.2c-1.8,0-2.5-1.4-2.5-3.2V53h4.5"/>
		<path class="st4" d="M56.1,59.5v5.1c0,1.8-1.6,3.2-3.4,3.2c-1.8,0-3.1-1.3-3.1-3.1"/>
		<path class="st4" d="M62.8,59.5v5.1c0,1.8-1.9,3.2-3.7,3.2c-1.8,0-3-1.3-3-3.1"/>
		<path class="st4" d="M69.1,59.5v5.1c0,1.8-1.2,3.2-3,3.2c-1.8,0-3.3-1.3-3.3-3.1"/>
		<path class="st4" d="M75.5,59.5v5.1c0,1.8-1.5,3.2-3.3,3.2c-1.8,0-3.2-1.3-3.2-3.1"/>
		<path class="st4" d="M81.9,59.5v5.1c0,1.8-1.3,3.2-3.1,3.2c-1.8,0-3.3-1.3-3.3-3.1"/>
		<path class="st4" d="M88.4,59.5v5.1c0,1.8-1.6,3.2-3.4,3.2c-1.8,0-3.1-1.3-3.1-3.1"/>
		<polyline class="st4" points="97.5,98.5 97.5,76 84.5,76 84.5,98.5 		"/>
		<line class="st4" x1="65.5" y1="76.5" x2="65.5" y2="91.5"/>
		<line class="st4" x1="86" y1="87" x2="88" y2="87"/>
		<polyline class="st4" points="55,76 75.5,76 75.5,92 62,92 		"/>
		<path class="st4" d="M101,64.7c0,1.8,2,3.2,3.8,3.2c1.8,0,3.8-1.5,3.8-3.2V53H102"/>
		<g>
			<line class="st4" x1="50.5" y1="102.5" x2="50.5" y2="89.5"/>
			<path class="st4" d="M59.3,91.4c0,4.7-3.8,6.4-8.6,6.4c-4.7,0-8.6-1.7-8.6-6.4c0-4.7,8.6-15,8.6-15S59.3,86.7,59.3,91.4z"/>
		</g>
		<line class="st4" x1="328.7" y1="103" x2="33.6" y2="103"/>
		<path class="st4" d="M94.5,59.5v5.1c0,1.8-0.9,3.2-2.7,3.2c-1.8,0-3.5-1.3-3.5-3.1"/>
		<path class="st4" d="M101,59.5v5.1c0,1.8-1.7,3.2-3.4,3.2c-1.8,0-3.1-1.3-3.1-3.1"/>
	</g>
	<path class="st5" d="M64.9,44.2c0-1.8-1.4-3.2-3.2-3.2h-0.6c-1.8,0-3.2,1.4-3.2,3.2c0,1.2,0.2,2.5,3.5,3.3c3.5,0.8,3.5,2.1,3.5,3.3
		c0,1.8-1.4,3.2-3.2,3.2h-0.6c-1.8,0-3.2-1.4-3.2-3.2"/>
</g>
<ellipse transform="matrix(9.575114e-02 -0.9954 0.9954 9.575114e-02 65.5167 138.6032)" class="st1" cx="109" cy="33.2" rx="2.9" ry="2.9"/>
<ellipse transform="matrix(9.575114e-02 -0.9954 0.9954 9.575114e-02 53.3332 144.1629)" class="st3" cx="106" cy="42.7" rx="0.8" ry="0.8"/>
</svg>
