<?xml version="1.0" encoding="utf-8"?>
<!-- Generator: Adobe Illustrator 20.0.0, SVG Export Plug-In . SVG Version: 6.00 Build 0)  -->
<svg version="1.1" id="レイヤー_1" xmlns="http://www.w3.org/2000/svg" xmlns:xlink="http://www.w3.org/1999/xlink" x="0px"
	 y="0px" viewBox="0 0 404 102.5" style="enable-background:new 0 0 404 102.5;" xml:space="preserve">
<style type="text/css">
	.st0{fill:#FFE700;}
	.st1{fill:#333333;}
	.st2{fill:none;stroke:#333333;stroke-miterlimit:10;}
	.st3{fill:none;stroke:#333333;stroke-width:0.9304;stroke-miterlimit:10;}
	.st4{fill:none;stroke:#333333;stroke-width:0.9304;stroke-linejoin:round;stroke-miterlimit:10;}
	.st5{fill:none;stroke:#333333;stroke-linejoin:round;stroke-miterlimit:10;}
	.st6{fill:none;stroke:#333333;stroke-width:0.9688;stroke-linejoin:round;stroke-miterlimit:10;}
	.st7{fill:none;stroke:#333333;stroke-width:0.8382;stroke-miterlimit:10;}
	.st8{fill:none;stroke:#333333;stroke-width:0.9688;stroke-miterlimit:10;}
	.st9{fill:none;stroke:#333333;stroke-width:0.9304;stroke-linecap:round;stroke-linejoin:round;stroke-miterlimit:10;}
	.st10{fill:none;stroke:#333333;stroke-width:0.9304;stroke-linecap:round;stroke-miterlimit:10;}
	.st11{fill:none;}
</style>
<path class="st0" d="M399,102.5H5c-2.8,0-5-2.2-5-5V5c0-2.8,2.2-5,5-5h394c2.8,0,5,2.2,5,5v92.5C404,100.3,401.8,102.5,399,102.5z"
	/>
<g>
	<g>
		<path class="st1" d="M98.7,75.2c-1.5,0-2,0-2,0c-0.2,0-0.2,0-0.2-0.2v-1.3c0-0.2,0-0.2,0.2-0.2c0.1,0,0.6,0,2,0h3.7v-1.1
			c0-0.9,0-1.5-0.1-2.1c0.6,0,1.2,0,1.8,0.1c0.1,0,0.2,0.1,0.2,0.2c0,0.1-0.1,0.3-0.1,0.4c0,0.2-0.1,0.5-0.1,1.3v1.1h4
			c1.5,0,2,0,2.1,0c0.2,0,0.2,0,0.2,0.2V75c0,0.2,0,0.2-0.2,0.2c-0.1,0-0.6,0-2.1,0h-3.3c1.4,2.5,3.5,4.4,6.1,5.7
			c-0.3,0.3-0.6,0.7-0.8,1.2c-0.1,0.3-0.2,0.4-0.3,0.4c-0.1,0-0.2-0.1-0.3-0.2c-2.2-1.5-4.2-3.4-5.4-5.9c0,1.3,0,2.9,0,4.3h0.8
			c1.4,0,1.9,0,2,0c0.2,0,0.2,0,0.2,0.2v1.2c0,0.2,0,0.2-0.2,0.2c-0.1,0-0.6,0-2,0h-0.8c0,1.4,0,2.4,0,2.7c0,0.1,0,0.2-0.2,0.2h-1.5
			c-0.2,0-0.2,0-0.2-0.2c0-0.3,0-1.3,0-2.7h-0.7c-1.4,0-1.9,0-2,0c-0.2,0-0.2,0-0.2-0.2v-1.2c0-0.2,0-0.2,0.2-0.2c0.1,0,0.6,0,2,0
			h0.7c0-1.4,0-2.8,0-4.1c-1.2,2.3-3,4.3-5,5.7c-0.2,0.1-0.3,0.2-0.4,0.2c-0.1,0-0.2-0.1-0.3-0.4c-0.2-0.4-0.5-0.8-0.8-1.1
			c2.2-1.2,4.5-3.3,5.8-5.8H98.7z"/>
		<path class="st1" d="M116.1,75c2.5-0.8,4.5-1.3,5.8-1.3c2.9,0,4.7,1.7,4.7,4.2c0,2.1-0.9,3.4-2.8,4.5c-1.3,0.8-2.6,1-4.1,1.3
			c-0.3,0.1-0.4,0-0.6-0.3c-0.2-0.4-0.6-0.9-1.1-1.3c2.1-0.4,3.2-0.7,4.3-1.2c1.4-0.7,2.2-1.7,2.2-3.2c0-1.5-1-2.4-2.8-2.4
			c-1.4,0-3.3,0.6-5.8,1.6c-0.5,0.3-0.9,0.4-1.1,0.6c-0.2,0.2-0.4,0.2-0.4,0.2c-0.2,0-0.3-0.1-0.5-0.3c-0.3-0.4-0.7-1-1-1.7
			C113.7,75.8,114.3,75.6,116.1,75z M124.8,71.6c0.1-0.1,0.1,0,0.2,0c0.5,0.4,1.1,1,1.5,1.7c0.1,0.1,0.1,0.2,0,0.3l-0.7,0.5
			c-0.1,0.1-0.2,0.1-0.3,0c-0.5-0.7-1-1.3-1.6-1.9L124.8,71.6z M126.2,70.6c0.1-0.1,0.1,0,0.2,0c0.6,0.4,1.2,1.1,1.5,1.6
			c0.1,0.1,0.1,0.2,0,0.3l-0.6,0.5c-0.1,0.1-0.2,0-0.3,0c-0.4-0.7-0.9-1.3-1.6-1.8L126.2,70.6z"/>
		<path class="st1" d="M140.1,72c0.1,0.1,0.1,0.2,0.1,0.3c0,0.1-0.1,0.2-0.2,0.3c-0.2,0.1-0.4,0.2-0.8,0.6c-1.4,1.2-3.1,2.9-4.4,4.2
			c-0.1,0.2-0.2,0.3-0.2,0.4c0,0.1,0.1,0.2,0.2,0.3c2.1,1.5,4.2,3.2,6,5c0.1,0.1,0.1,0.1,0.1,0.2c0,0.1,0,0.1-0.1,0.2
			c-0.4,0.4-0.8,0.9-1.1,1.1c-0.1,0.1-0.2,0.1-0.2,0.1c-0.1,0-0.1,0-0.2-0.1c-1.9-2.1-3.6-3.7-5.8-5.4c-0.6-0.5-0.8-0.8-0.8-1.3
			c0-0.5,0.3-0.9,0.8-1.4c1.4-1.5,2.7-2.8,4.1-4.3c0.4-0.5,0.7-0.8,0.9-1.2C139,71.2,139.6,71.6,140.1,72z"/>
		<path class="st1" d="M152,71.5c0.2,0.1,0.3,0.2,0.3,0.3c0,0.1,0,0.2-0.1,0.3c-0.1,0.1-0.2,0.4-0.3,0.8c-0.2,1.1-0.4,2.2-0.4,3.1
			c0,0.6-0.1,1.2,0,1.8c0.4-0.6,0.7-1.2,1.1-2c0.1,0.5,0.3,0.8,0.5,1c0.1,0.1,0.1,0.2,0.1,0.3c0,0.1-0.1,0.3-0.2,0.4
			c-0.4,0.7-0.7,1.3-0.9,2c0,0.1-0.1,0.3-0.1,0.5c0,0.2-0.1,0.2-0.2,0.3c-0.2,0-0.9,0.1-1.3,0.2c-0.1,0-0.2-0.1-0.2-0.2
			c-0.3-0.7-0.5-1.9-0.5-3.2c0-1.1,0.2-2.4,0.4-4c0.1-0.6,0.1-1.1,0.1-1.8C151,71.1,151.6,71.3,152,71.5z M157.2,71.2
			c0.3,0.1,0.4,0.2,0.3,0.4c0,0.2,0,0.5,0,0.7c0.1,1.5,0.2,3,0.2,4.1c0,2.3-0.4,4.2-1.2,5.6c-0.6,1-1.6,1.9-2.6,2.6
			c-0.1,0.1-0.2,0.1-0.3,0.1c-0.1,0-0.2,0-0.3-0.2c-0.4-0.3-0.8-0.6-1.4-0.7c1.3-0.7,2.1-1.3,2.7-2.1c0.9-1.3,1.3-2.6,1.3-5.1
			c0-1.1-0.1-2.8-0.2-3.8c-0.1-0.8-0.2-1.2-0.3-1.7C156.1,71.1,156.7,71.1,157.2,71.2z"/>
		<path class="st1" d="M167.3,72.2c0.3,0.1,0.4,0.2,0.4,0.4c0,0.1,0,0.2-0.2,0.5c-0.2,0.3-0.2,0.5-0.4,1.1c-0.4,2-0.7,4-0.7,5.2
			c0,0.8,0,1.3,0.1,1.9c0.3-0.7,0.6-1.3,1.1-2.4c0.1,0.4,0.3,0.7,0.6,1c0,0.1,0.1,0.2,0.1,0.2c0,0.1,0,0.2-0.1,0.3
			c-0.4,0.8-0.7,1.5-0.9,2.4c0,0.1,0,0.3,0,0.5c0,0.2,0,0.3,0,0.4c0,0.1-0.1,0.2-0.2,0.2c-0.4,0.1-0.8,0.2-1.3,0.3
			c-0.1,0-0.2-0.1-0.2-0.2c-0.4-1.1-0.7-3.2-0.7-4.8c0-1.4,0.2-3.2,0.5-5.2c0.2-1.2,0.3-1.7,0.3-2.4
			C166.3,71.8,166.8,71.9,167.3,72.2z M170.7,79.7c0.1,0,0.2,0.1,0.2,0.2c0.1,1.1,0.9,1.5,2.6,1.5c1.2,0,2-0.1,3.1-0.2
			c0.2,0,0.2,0,0.2,0.2c0,0.3,0.1,1,0.1,1.4c0,0.2,0,0.2-0.3,0.2c-1.1,0.1-1.9,0.2-2.6,0.2c-2.4,0-3.5-0.4-4.2-1.3
			c-0.4-0.5-0.6-1.3-0.6-2.1L170.7,79.7z M169.8,73.7c0-0.2,0.1-0.2,0.2-0.3c0.9-0.2,2.7-0.3,3.5-0.3c1,0,1.7,0,2.4,0.1
			c0.3,0,0.4,0,0.4,0.2c0,0.5,0,0.9,0,1.4c0,0.1-0.1,0.2-0.2,0.2c-1-0.1-1.8-0.1-2.6-0.1c-1.1,0-2.1,0.1-3.6,0.4
			C169.8,74.4,169.8,74,169.8,73.7z"/>
		<path class="st1" d="M182.6,76.2c-1.4,0-1.9,0-2,0c-0.2,0-0.2,0-0.2-0.2v-1.3c0-0.2,0-0.2,0.2-0.2c0.1,0,0.6,0,2,0h3.7
			c0-0.7,0.1-1.4,0.1-2.2c0-0.8,0-1.3-0.1-1.9c0.5,0,1.3,0,1.8,0.1c0.2,0,0.3,0.1,0.3,0.2c0,0.1,0,0.2-0.1,0.3
			c-0.1,0.1-0.1,0.4-0.1,1.1c0,0.8,0,1.5-0.1,2.2h4.1c1.4,0,1.9,0,2,0c0.2,0,0.2,0,0.2,0.2v1.3c0,0.2,0,0.2-0.2,0.2
			c-0.1,0-0.6,0-2,0h-3.8c1,3.1,3.2,5.7,6.4,7c-0.3,0.3-0.7,0.8-0.9,1.2c-0.1,0.3-0.2,0.4-0.3,0.4c-0.1,0-0.2-0.1-0.4-0.2
			c-2.5-1.4-4.6-3.6-5.7-6.5c-0.2,0.5-0.4,1.1-0.6,1.5c-1.1,2.3-2.8,3.8-5.1,5c-0.2,0.1-0.3,0.1-0.4,0.1c-0.1,0-0.2-0.1-0.4-0.4
			c-0.3-0.4-0.6-0.7-0.9-1c2.6-1,4.2-2.5,5.2-4.4c0.4-0.8,0.7-1.7,0.9-2.8H182.6z"/>
		<path class="st1" d="M200.2,79.4c0,0.3,0,0.4,0.1,0.5c0.1,0.1,0.3,0.1,0.6,0.1c0.3,0,0.6-0.1,0.7-0.2c0.3-0.2,0.3-0.6,0.4-2.1
			c0.3,0.2,0.7,0.4,1.1,0.5c0.4,0.1,0.4,0.2,0.4,0.6c-0.1,1.5-0.4,2-0.9,2.4c-0.4,0.3-1.1,0.4-1.8,0.4c-0.7,0-1.2,0-1.6-0.2
			c-0.4-0.2-0.6-0.5-0.6-1.4v-3.7l-1.6,0.3c-0.2,0-0.2,0-0.2-0.1l-0.2-1.3c0-0.2,0-0.2,0.1-0.2c0.2,0,0.6-0.1,1.8-0.3v-1.8
			c0-1.1,0-1.7-0.1-2.1c0.6,0,1.1,0,1.6,0.1c0.2,0,0.3,0.1,0.3,0.2c0,0.1,0,0.2-0.1,0.3c-0.1,0.2-0.1,0.5-0.1,1.5v1.5l1.2-0.2
			c1.2-0.2,1.7-0.4,1.8-0.4c0.2,0,0.2,0,0.2,0.1l0.1,1.3c0,0.2,0,0.2-0.2,0.2c-0.1,0-0.6,0.1-1.8,0.3l-1.3,0.3V79.4z M207,73.2
			c0,2.6-0.1,4.9-0.8,6.9c-0.8,2-2,3.4-4.2,4.6c-0.2,0.1-0.3,0.2-0.4,0.2c-0.1,0-0.2-0.1-0.4-0.3c-0.3-0.4-0.7-0.6-1.1-0.9
			c2.4-1,3.7-2.3,4.4-4.2c0.7-1.8,0.7-3.6,0.8-6.4H205c-1.5,0-2,0-2,0c-0.2,0-0.2,0-0.2-0.2v-1.2c0-0.2,0-0.2,0.2-0.2
			c0.1,0,0.6,0,2,0h3.8c1.5,0,2,0,2.1,0c0.1,0,0.2,0,0.2,0.2c0,0.5,0,1,0,1.4c0,3.9-0.2,7-0.6,9.2c-0.3,1.6-1,2.3-2.6,2.3
			c-0.3,0-0.6,0-1,0c-0.4,0-0.4,0-0.5-0.5c-0.1-0.6-0.2-1-0.4-1.3c0.7,0.1,1.1,0.2,1.7,0.2c0.6,0,1-0.3,1.1-1.3
			c0.3-1.7,0.5-4.6,0.5-8.6H207z"/>
		<path class="st1" d="M221.8,73.2c0.1,0,0.2,0,0.2,0.1c0.1,0.4,0.1,0.9,0.1,1.3c0,0.1-0.1,0.2-0.2,0.2c-0.9,0.2-1.6,0.3-2.6,0.4
			c-1,2.7-2,4.9-3.1,6.9c-0.1,0.1-0.1,0.2-0.2,0.2c0,0-0.1,0-0.2-0.1c-0.4-0.2-0.8-0.6-1.1-0.8c-0.1-0.1-0.1-0.1-0.1-0.2
			c0,0,0-0.1,0.1-0.2c1.2-2,2-3.7,2.8-5.6c-0.6,0-1.1,0-1.6,0c-0.4,0-0.5,0-0.9,0c-0.2,0-0.2,0-0.2-0.3c-0.1-0.3-0.1-0.8-0.2-1.4
			c0.7,0,1,0.1,1.5,0.1c0.6,0,1.1,0,1.8-0.1c0.2-0.7,0.3-1.2,0.4-1.8c0.1-0.6,0.1-0.8,0.1-1.3c0.7,0.1,1.4,0.2,1.9,0.3
			c0.2,0,0.3,0.1,0.3,0.2c0,0.1,0,0.2-0.1,0.3c-0.1,0.1-0.2,0.3-0.3,0.6c-0.1,0.4-0.2,0.9-0.4,1.4C220.4,73.5,221.2,73.3,221.8,73.2
			z M222.3,77.5c0-0.4,0-0.7-0.1-1.1c0.8,0.1,1.2,0.1,1.7,0.3c0.1,0,0.2,0.1,0.2,0.3c0,0,0,0.1-0.1,0.3s-0.1,0.4-0.1,0.7
			c0,0.9,0,1.6,0.2,2.7c1.2,0.5,1.9,0.8,2.9,1.5c0.2,0.1,0.2,0.2,0.1,0.3c-0.2,0.5-0.5,0.9-0.7,1.3c0,0.1-0.1,0.1-0.1,0.1
			c0,0-0.1,0-0.2-0.1c-0.7-0.6-1.3-1-2-1.3c0,1.6-1.2,2.3-3,2.3c-1.8,0-2.9-0.9-2.9-2.3c0-1.4,1.2-2.3,3-2.3c0.3,0,0.8,0,1.3,0.1
			C222.3,79.2,222.3,78.2,222.3,77.5z M221.1,81.5c-0.8,0-1.4,0.3-1.4,0.9c0,0.5,0.4,0.8,1.4,0.8c0.9,0,1.4-0.5,1.4-1.1
			c0-0.1,0-0.2,0-0.3C222,81.6,221.6,81.5,221.1,81.5z M224.1,73.8c0.1-0.2,0.2-0.2,0.3-0.1c0.9,0.3,2.2,0.9,3.1,1.5
			c0.1,0.1,0.1,0.1,0.1,0.2c0,0,0,0.1-0.1,0.2c-0.2,0.4-0.4,0.8-0.7,1.2c0,0.1-0.1,0.1-0.1,0.1c0,0-0.1,0-0.1-0.1
			c-0.9-0.6-2.1-1.3-3.3-1.7C223.7,74.6,223.9,74.1,224.1,73.8z"/>
		<path class="st1" d="M240,80.7c0,2-1.6,3.4-3.9,3.4c-2.4,0-4-1.3-4-3.3c0-1.4,0.7-2.2,2.4-3c-1.5-0.8-2.1-1.8-2.1-3.1
			c0-1.8,1.5-3.2,3.6-3.2c2.2,0,3.7,1.3,3.7,3.1c0,1.3-0.7,2.2-2.1,2.8C239.3,78.1,240,79.1,240,80.7z M235.6,78.3
			c-1.1,0.6-1.7,1.3-1.7,2.3c0,1.2,0.8,2,2,2c1.3,0,2-0.7,2-1.9c0-1-0.5-1.5-1.9-2.2L235.6,78.3z M236.4,76.7
			c1.1-0.6,1.4-1.2,1.4-2.1c0-1-0.8-1.7-1.8-1.7c-1,0-1.8,0.6-1.8,1.7c0,0.8,0.4,1.4,1.7,2L236.4,76.7z"/>
		<path class="st1" d="M246.3,74.6c2.5-0.8,4.5-1.3,5.8-1.3c2.9,0,4.7,1.7,4.7,4.2c0,2.1-0.9,3.4-2.8,4.5c-1.3,0.8-2.6,1-4.1,1.3
			c-0.3,0.1-0.4,0-0.6-0.3c-0.2-0.4-0.6-0.9-1.1-1.3c2.1-0.4,3.2-0.7,4.3-1.2c1.4-0.7,2.2-1.7,2.2-3.2c0-1.5-1-2.4-2.8-2.4
			c-1.4,0-3.3,0.6-5.8,1.6c-0.5,0.3-0.9,0.4-1.1,0.6c-0.2,0.2-0.4,0.2-0.4,0.2c-0.2,0-0.3-0.1-0.5-0.3c-0.3-0.4-0.7-1-1-1.7
			C243.9,75.3,244.5,75.2,246.3,74.6z"/>
		<path class="st1" d="M268,74c-0.4,2.7-1,5.2-2,6.9c-0.7,1.2-1.5,1.8-2.7,1.8c-1.4,0-2.8-1.5-2.8-4.1c0-1.5,0.7-3,1.8-4.2
			c1.3-1.3,3-2,5.2-2c3.8,0,6.1,2.4,6.1,5.6c0,3-1.7,4.9-4.9,5.8c-0.3,0.1-0.5,0-0.7-0.3c-0.2-0.3-0.5-0.6-1.1-1
			c2.7-0.6,4.8-1.8,4.8-4.8C271.7,75.8,270.2,74,268,74L268,74z M263.4,75.5c-0.8,0.9-1.2,1.9-1.2,3c0,1.5,0.6,2.3,1.1,2.3
			c0.4,0,0.8-0.2,1.2-1c0.7-1.3,1.4-3.6,1.7-5.7C265,74.3,264.1,74.7,263.4,75.5z"/>
		<path class="st1" d="M278.8,80.2c-1.4,0-1.9,0-2,0c-0.1,0-0.2,0-0.2-0.2V79c0-0.1,0-0.2,0.2-0.2c0.1,0,0.6,0,2,0h2.6
			c0.3-0.4,0.4-0.8,0.6-1.3c0.6,0,1.2,0.1,1.6,0.2c0.2,0,0.2,0.1,0.2,0.2c0,0.1,0,0.2-0.2,0.3c-0.1,0.1-0.2,0.2-0.5,0.6h5.8
			c1.4,0,1.9,0,2,0c0.1,0,0.2,0,0.2,0.2v1.1c0,0.2,0,0.2-0.2,0.2c-0.1,0-0.6,0-2,0h-1.4c-0.4,0.8-0.8,1.4-1.3,1.9
			c1.2,0.4,2.5,0.9,3.9,1.5c0.1,0,0.1,0.1,0.1,0.1s0,0.1-0.1,0.2l-0.8,0.9c-0.2,0.2-0.2,0.2-0.3,0.1c-1.4-0.7-2.6-1.3-4-1.8
			c-1.7,1.2-3.9,1.6-6.7,1.8c-0.5,0-0.5,0-0.7-0.4c-0.1-0.4-0.4-0.7-0.6-1c2.7,0,4.6-0.4,6-1c-0.6-0.2-1.3-0.3-2-0.5
			c0,0.1-0.1,0.1-0.2,0.2c-0.1,0.1-0.2,0.2-0.4,0.1l-1.2-0.3c-0.1,0-0.2-0.1-0.1-0.2l0.4-0.5c0.2-0.3,0.4-0.4,0.6-0.8l0.4-0.6H278.8
			z M278.9,72.4c-1.4,0-1.9,0-2,0c-0.2,0-0.2,0-0.2-0.2v-1.1c0-0.2,0-0.2,0.2-0.2c0.1,0,0.6,0,2,0h9.7c1.4,0,1.9,0,2,0
			c0.2,0,0.2,0,0.2,0.2v1.1c0,0.2,0,0.2-0.2,0.2c-0.1,0-0.6,0-2,0h-2.5v1.1h1c1.6,0,2.1,0,2.2,0c0.2,0,0.2,0,0.2,0.2
			c0,0.1,0,0.4,0,1.2v1.3c0,0.8,0,1.1,0,1.2c0,0.2,0,0.2-0.2,0.2c-0.1,0-0.7,0-2.2,0h-6.8c-1.6,0-2.1,0-2.2,0c-0.2,0-0.2,0-0.2-0.2
			c0-0.1,0-0.4,0-1.2v-1.3c0-0.8,0-1.1,0-1.2c0-0.2,0-0.2,0.2-0.2c0.1,0,0.7,0,2.2,0h0.9v-1.1H278.9z M281.3,76.3v-1.5h-1.6v1.5
			H281.3z M282.2,80.2c-0.2,0.3-0.4,0.6-0.6,0.8c0.9,0.2,1.8,0.4,2.7,0.6c0.5-0.4,0.8-0.9,1.2-1.4H282.2z M284.6,73.6v-1.1h-1.8v1.1
			H284.6z M284.6,74.8h-1.8v1.5h1.8V74.8z M288,74.8h-1.8v1.5h1.8V74.8z"/>
		<path class="st1" d="M304.9,78.7c0.2-0.1,0.2-0.1,0.3,0c0.9,0.8,1.7,1.7,2.4,2.6c0.1,0.1,0.1,0.2-0.1,0.3l-0.9,0.5
			c-0.2,0.1-0.2,0.1-0.3,0c-0.2-0.3-0.4-0.7-0.7-1c-1.3,0.1-2.8,0.2-4.3,0.3v1.9c0,1,0,1.5,0,1.6c0,0.2,0,0.2-0.2,0.2h-1.4
			c-0.2,0-0.2,0-0.2-0.2c0-0.1,0-0.5,0-1.6v-1.7c-1.6,0.1-3.2,0.2-4.7,0.2c-0.4,0-0.5,0-0.6,0.1c-0.1,0-0.2,0.1-0.3,0.1
			c-0.1,0-0.2-0.1-0.2-0.2c-0.1-0.4-0.2-1-0.3-1.4c0.7,0,1.2,0.1,1.7,0.1c0.9,0,1.9,0,2.8-0.1c-0.8-0.6-1.6-1.1-2.5-1.6
			c-0.1,0-0.1-0.1-0.1-0.1c0,0,0-0.1,0.1-0.2l0.8-0.6c0.1-0.1,0.2-0.1,0.3,0l1,0.6c0.3-0.3,0.6-0.5,0.9-0.8c0.1-0.2,0.2-0.3,0.3-0.4
			h-3.2c-1.4,0-1.9,0-2,0c-0.2,0-0.2,0-0.2-0.2v-1c0-0.2,0-0.2,0.2-0.2c0.1,0,0.6,0,2,0h3.9V75h-1.9c-1.5,0-2.1,0-2.2,0
			c-0.2,0-0.2,0-0.2-0.2V74c0-0.2,0-0.2,0.2-0.2c0.1,0,0.6,0,2.2,0h1.9v-0.8h-2.8c-1.5,0-2,0-2.1,0c-0.2,0-0.2,0-0.2-0.2v-1
			c0-0.2,0-0.2,0.2-0.2c0.1,0,0.6,0,2.1,0h2.8c0-0.6,0-1-0.1-1.5c0.6,0,1.1,0,1.7,0.1c0.2,0,0.2,0.1,0.2,0.2c0,0.1,0,0.2-0.1,0.3
			c-0.1,0.2-0.1,0.4-0.1,0.9h3.1c1.5,0,2.1,0,2.2,0c0.2,0,0.2,0,0.2,0.2v1c0,0.2,0,0.2-0.2,0.2c-0.1,0-0.6,0-2.2,0h-3.1v0.8h2.3
			c1.5,0,2.1,0,2.2,0c0.2,0,0.2,0,0.2,0.2v0.9c0,0.2,0,0.2-0.2,0.2c-0.1,0-0.6,0-2.2,0h-2.3v0.8h4.2c1.4,0,1.9,0,2,0
			c0.2,0,0.2,0,0.2,0.2v1c0,0.2,0,0.2-0.2,0.2c-0.1,0-0.6,0-2,0h-5.7c0.3,0.1,0.5,0.2,0.7,0.4c0.2,0.1,0.2,0.1,0.2,0.2
			c0,0.1-0.1,0.2-0.2,0.2c-0.1,0-0.3,0.1-0.5,0.4c-0.3,0.3-0.7,0.6-1.1,0.9c0.3,0.2,0.6,0.4,0.9,0.7c0.8-0.6,1.4-1.2,2-1.8
			c0.3-0.3,0.5-0.5,0.6-0.8c0.5,0.2,0.9,0.5,1.3,0.7c0.1,0.1,0.2,0.1,0.2,0.2c0,0.1-0.1,0.2-0.2,0.2c-0.1,0-0.3,0.1-0.5,0.3
			c-0.6,0.5-1.1,1-1.7,1.4c1.1,0,2.2-0.1,3.2-0.2l-0.6-0.6c-0.1-0.1-0.1-0.2,0.1-0.3L304.9,78.7z M298.4,82.5
			c0.1,0.1,0.2,0.1,0.2,0.2c0,0.1-0.1,0.2-0.2,0.2c-0.1,0-0.3,0.2-0.5,0.4c-0.7,0.6-1.6,1.2-2.5,1.5c-0.2,0.1-0.3,0.1-0.4,0.1
			c-0.1,0-0.2-0.1-0.4-0.4c-0.2-0.3-0.5-0.6-0.8-0.8c1.1-0.4,2-0.8,2.8-1.4c0.2-0.2,0.4-0.4,0.6-0.7C297.6,82,298.1,82.3,298.4,82.5
			z M303.4,81.8c0.2-0.1,0.2-0.1,0.3,0c0.9,0.8,2,1.4,3.5,1.9c-0.3,0.2-0.6,0.5-0.8,0.9c-0.2,0.3-0.2,0.4-0.4,0.4
			c-0.1,0-0.2,0-0.4-0.1c-1.2-0.6-2.2-1.2-3.2-2.2c-0.1-0.1-0.1-0.1,0.1-0.3L303.4,81.8z"/>
	</g>
</g>
<g>
	<g>
		<g>
			<g>
				<g>
					<rect x="216.9" y="26.8" class="st2" width="18" height="24"/>
					<polyline class="st2" points="232.9,50.3 232.9,53.8 215.4,53.8 					"/>
					<rect x="220.9" y="32.8" class="st2" width="5" height="4"/>
					<rect x="226.9" y="32.8" class="st2" width="6" height="4"/>
					<rect x="220.9" y="38.8" class="st2" width="5" height="4"/>
					<rect x="226.9" y="38.8" class="st2" width="6" height="4"/>
					<line class="st2" x1="220.4" y1="29.8" x2="228.4" y2="29.8"/>
					<line class="st2" x1="220.4" y1="45.8" x2="223.4" y2="45.8"/>
					<line class="st2" x1="224.4" y1="45.8" x2="233.4" y2="45.8"/>
					<line class="st2" x1="229.4" y1="47.8" x2="233.4" y2="47.8"/>
					<line class="st2" x1="220.4" y1="47.8" x2="228.4" y2="47.8"/>
					<path class="st3" d="M215.3,52.8c-1.3,0-2.3-1-2.3-2.3c0-1.3,1-2.3,2.3-2.3c1.3,0,2.3,1,2.3,2.3"/>
					<path class="st2" d="M213.9,50.3v-24c0-1.3,0.6-2.3,1.9-2.3c1.3,0,2.5,1,2.5,2.2"/>
				</g>
			</g>
		</g>
		<g>
			<g>
				<g>
					<path class="st4" d="M189.2,51.4"/>
					<g>
						<line class="st5" x1="184.4" y1="34.8" x2="189.4" y2="34.8"/>
						<line class="st5" x1="184.4" y1="32.8" x2="189.4" y2="32.8"/>
						<line class="st5" x1="184.4" y1="35.8" x2="189.4" y2="35.8"/>
						<line class="st5" x1="184.4" y1="37.8" x2="189.4" y2="37.8"/>
						<line class="st5" x1="177.4" y1="42.8" x2="184.4" y2="42.8"/>
						<line class="st5" x1="171.4" y1="44.8" x2="177.4" y2="44.8"/>
						<line class="st5" x1="171.4" y1="42.8" x2="177.4" y2="42.8"/>
						<line class="st5" x1="177.4" y1="44.8" x2="184.4" y2="44.8"/>
						<line class="st5" x1="171.4" y1="46.8" x2="177.4" y2="46.8"/>
						<line class="st5" x1="177.4" y1="46.8" x2="184.4" y2="46.8"/>
						<line class="st5" x1="171.4" y1="48.8" x2="177.4" y2="48.8"/>
						<line class="st5" x1="177.4" y1="48.8" x2="184.4" y2="48.8"/>
						<rect x="170.9" y="32.8" class="st5" width="13" height="5"/>
						<rect x="184.9" y="42.8" class="st5" width="4" height="6"/>
						<line class="st5" x1="184.4" y1="44.8" x2="189.4" y2="44.8"/>
						<line class="st5" x1="189.4" y1="46.8" x2="184.4" y2="46.8"/>
						<line class="st5" x1="171.4" y1="29.8" x2="189.4" y2="29.8"/>
						<rect x="170.9" y="39.8" class="st5" width="18" height="2"/>
						<line class="st5" x1="175.4" y1="35.8" x2="176.4" y2="35.8"/>
						<line class="st6" x1="177.3" y1="35.1" x2="177.3" y2="35.1"/>
						<line class="st5" x1="178.4" y1="35.8" x2="179.4" y2="35.8"/>
					</g>
					<path class="st5" d="M164.4,28.8h-1.5v19.8c0,1.5,1.5,2.8,3,2.8c1.5,0,3-1.2,3-2.8V27.6l2.3-2.3l2.3,2.3l2.3-2.3l2.3,2.3
						l2.3-2.3l2.3,2.3l2.3-2.3l2.3,2.3l2.2-2.3l2.2,2.3v20.9c0,1.5-1.1,3.2-2.6,3.2h-23.9"/>
					<polyline class="st5" points="167.4,28.8 165.9,28.8 165.9,49.3 					"/>
				</g>
			</g>
		</g>
		<g>
			<g>
				<polyline class="st2" points="146.9,34.3 146.9,53.8 142.9,53.8 142.9,34.3 				"/>
				<line class="st2" x1="144.9" y1="34.3" x2="144.9" y2="53.3"/>
				<rect x="117.9" y="23.8" class="st2" width="4" height="30"/>
				<g>
					<rect x="123.9" y="23.8" class="st2" width="2" height="28"/>
					<line class="st2" x1="124.9" y1="51.3" x2="124.9" y2="54.3"/>
					<line class="st2" x1="123.4" y1="48.8" x2="125.4" y2="48.8"/>
					<line class="st2" x1="123.4" y1="47.8" x2="125.4" y2="47.8"/>
					<line class="st2" x1="123.4" y1="45.8" x2="125.4" y2="45.8"/>
					<line class="st2" x1="123.4" y1="27.8" x2="125.4" y2="27.8"/>
				</g>
				<line class="st2" x1="119.9" y1="51.3" x2="119.9" y2="50.3"/>
				<line class="st2" x1="121.4" y1="46.8" x2="120.4" y2="46.8"/>
				<line class="st2" x1="121.4" y1="48.8" x2="120.4" y2="48.8"/>
				<line class="st2" x1="121.4" y1="43.8" x2="120.4" y2="43.8"/>
				<line class="st2" x1="121.4" y1="40.8" x2="120.4" y2="40.8"/>
				<line class="st2" x1="121.4" y1="38.8" x2="120.4" y2="38.8"/>
				<line class="st2" x1="121.4" y1="35.8" x2="120.4" y2="35.8"/>
				<line class="st2" x1="121.4" y1="32.8" x2="120.4" y2="32.8"/>
				<line class="st2" x1="121.4" y1="29.8" x2="120.4" y2="29.8"/>
				<line class="st2" x1="121.4" y1="27.8" x2="120.4" y2="27.8"/>
				<rect x="128.7" y="23.8" class="st7" width="1.7" height="1.7"/>
				<rect x="138" y="23.5" class="st8" width="1.9" height="1.9"/>
				<rect x="128.3" y="33.2" class="st8" width="1.9" height="1.9"/>
				<rect x="138" y="33.2" class="st8" width="1.9" height="1.9"/>
				<line class="st2" x1="132.4" y1="24.8" x2="133.4" y2="24.8"/>
				<line class="st2" x1="133.4" y1="24.8" x2="134.4" y2="24.8"/>
				<line class="st2" x1="135.4" y1="24.8" x2="136.4" y2="24.8"/>
				<line class="st2" x1="132.4" y1="34.8" x2="133.4" y2="34.8"/>
				<line class="st2" x1="133.4" y1="34.8" x2="134.4" y2="34.8"/>
				<line class="st2" x1="135.4" y1="34.8" x2="136.4" y2="34.8"/>
				<g>
					<line class="st2" x1="128.9" y1="28.3" x2="128.9" y2="29.3"/>
					<line class="st2" x1="128.9" y1="29.3" x2="128.9" y2="30.3"/>
					<line class="st2" x1="128.9" y1="31.3" x2="128.9" y2="32.3"/>
				</g>
				<g>
					<line class="st2" x1="138.9" y1="28.3" x2="138.9" y2="29.3"/>
					<line class="st2" x1="138.9" y1="29.3" x2="138.9" y2="30.3"/>
					<line class="st2" x1="138.9" y1="31.3" x2="138.9" y2="32.3"/>
				</g>
				<circle class="st3" cx="134.3" cy="29.4" r="2.8"/>
				<polygon class="st2" points="146.9,33.8 142.9,33.8 142.9,29.4 143.9,26.2 143.9,25.8 145.9,25.8 145.9,26.2 146.9,29.4 				"/>
				<line class="st2" x1="144.9" y1="25.3" x2="144.9" y2="23.3"/>
				<line class="st2" x1="142.4" y1="29.8" x2="146.4" y2="29.8"/>
				<path class="st2" d="M127.9,44.3v-5.1c0-0.8,1.2-1.4,2-1.4l0,0c0.8,0,2,0.6,2,1.4v5.1"/>
				<line class="st2" x1="127.4" y1="44.8" x2="132.4" y2="44.8"/>
				<line class="st2" x1="128.9" y1="54.3" x2="128.9" y2="44.3"/>
				<line class="st2" x1="130.9" y1="54.3" x2="130.9" y2="44.3"/>
				<g>
					<path class="st2" d="M139.9,53.8c0,0.5-0.4,0.9-0.9,0.9h-4.1c-0.5,0-0.9-0.4-0.9-0.9V39.7c0-0.5,0.4-0.9,0.9-0.9h4.1
						c0.5,0,0.9,0.4,0.9,0.9V53.8z"/>
					<line class="st2" x1="133.4" y1="45.8" x2="140.4" y2="45.8"/>
				</g>
			</g>
		</g>
		<g>
			<g>
				<path class="st3" d="M322.8,34.2v-6c0-2.3-1.9-4.2-4.2-4.2c-2.3,0-4.2,1.9-4.2,4.2v6"/>
				<path class="st3" d="M319.1,30.5v-2.3c0-2.3-1.9-4.2-4.2-4.2c-2.3,0-4.2,1.9-4.2,4.2v2.3"/>
				<line class="st3" x1="321.4" y1="34.2" x2="324.2" y2="34.2"/>
				<line class="st3" x1="313" y1="34.2" x2="315.8" y2="34.2"/>
				<g>
					<path class="st3" d="M307.4,44.4c1.4,0,1.4,1.9,2.8,1.9s1.4-1.9,2.8-1.9c1.4,0,1.4,1.9,2.8,1.9c1.4,0,1.4-1.9,2.8-1.9
						c1.4,0,1.4,1.9,2.8,1.9c1.4,0,1.4-1.9,2.8-1.9c1.4,0,1.4,1.9,2.8,1.9c1.4,0,1.4-1.9,2.8-1.9"/>
				</g>
				<line class="st3" x1="316.3" y1="49.1" x2="317.2" y2="49.1"/>
				<line class="st3" x1="318.1" y1="49.1" x2="319.1" y2="49.1"/>
				<line class="st3" x1="320" y1="49.1" x2="320.9" y2="49.1"/>
				<path class="st4" d="M305.1,52.8h22.3c1.3,0,2.3-1,2.3-2.3v-20h-22.3v20C307.4,51.8,306.4,52.8,305.1,52.8s-2.3-1-2.3-2.3v-20
					h3.3"/>
				<path class="st4" d="M305.1,32.8"/>
				<path class="st4" d="M307.4,30.5c0,1.3-1,2.3-2.3,2.3s-2.3-1-2.3-2.3"/>
				<line class="st4" x1="305.1" y1="35.1" x2="305.1" y2="50.5"/>
			</g>
		</g>
		<g>
			<g>
				<line class="st3" x1="260.4" y1="36.1" x2="260.4" y2="30.9"/>
				<line class="st3" x1="280" y1="30.9" x2="280" y2="36.1"/>
				<polyline class="st3" points="278.1,34.7 278.1,26.8 275.3,24 262.3,24 262.3,34.7 				"/>
				<line class="st3" x1="264.6" y1="29.5" x2="275.8" y2="29.5"/>
				<line class="st3" x1="264.6" y1="31.4" x2="275.8" y2="31.4"/>
				<line class="st3" x1="264.6" y1="33.3" x2="275.8" y2="33.3"/>
				<polyline class="st3" points="259.1,37.9 257.2,37.9 257.2,41.2 				"/>
				<line class="st3" x1="281.4" y1="37.9" x2="283.2" y2="37.9"/>
				<line class="st3" x1="283.2" y1="36.5" x2="283.2" y2="39.3"/>
				<g>
					<line class="st3" x1="276.3" y1="46.3" x2="275.3" y2="46.3"/>
					<line class="st3" x1="278.1" y1="46.3" x2="277.2" y2="46.3"/>
					<line class="st3" x1="274.4" y1="46.3" x2="273.5" y2="46.3"/>
					<line class="st3" x1="267" y1="46.3" x2="266" y2="46.3"/>
					<line class="st3" x1="265.1" y1="46.3" x2="264.2" y2="46.3"/>
					<line class="st3" x1="263.2" y1="46.3" x2="262.3" y2="46.3"/>
					<line class="st3" x1="272.5" y1="46.3" x2="271.6" y2="46.3"/>
					<line class="st3" x1="270.7" y1="46.3" x2="269.8" y2="46.3"/>
					<line class="st3" x1="268.8" y1="46.3" x2="267.9" y2="46.3"/>
					<line class="st3" x1="275.3" y1="48.2" x2="274.4" y2="48.2"/>
					<line class="st3" x1="277.2" y1="48.2" x2="276.3" y2="48.2"/>
					<line class="st3" x1="279.1" y1="48.2" x2="278.1" y2="48.2"/>
					<line class="st3" x1="273.5" y1="48.2" x2="272.5" y2="48.2"/>
					<line class="st3" x1="271.6" y1="48.2" x2="270.7" y2="48.2"/>
					<line class="st3" x1="269.8" y1="48.2" x2="268.8" y2="48.2"/>
					<line class="st3" x1="267.9" y1="48.2" x2="267" y2="48.2"/>
					<line class="st3" x1="266" y1="48.2" x2="265.1" y2="48.2"/>
					<line class="st3" x1="264.2" y1="48.2" x2="263.2" y2="48.2"/>
					<line class="st3" x1="262.3" y1="48.2" x2="261.4" y2="48.2"/>
					<line class="st3" x1="264.2" y1="50" x2="263.2" y2="50"/>
					<line class="st3" x1="262.3" y1="50" x2="261.4" y2="50"/>
					<line class="st3" x1="261.4" y1="46.3" x2="260.4" y2="46.3"/>
					<line class="st3" x1="260.4" y1="48.2" x2="259.5" y2="48.2"/>
					<line class="st3" x1="260.4" y1="50" x2="259.5" y2="50"/>
					<line class="st3" x1="279.1" y1="50" x2="278.1" y2="50"/>
					<line class="st3" x1="280" y1="46.3" x2="279.1" y2="46.3"/>
					<line class="st3" x1="280.9" y1="48.2" x2="280" y2="48.2"/>
					<line class="st3" x1="280.9" y1="50" x2="280" y2="50"/>
					<line class="st3" x1="277.2" y1="50" x2="276.3" y2="50"/>
					<line class="st3" x1="265.1" y1="50" x2="275.3" y2="50"/>
				</g>
				<polyline class="st3" points="278.1,26.8 275.3,26.8 275.3,24 				"/>
				<line class="st3" x1="264.6" y1="26.8" x2="273" y2="26.8"/>
				<path class="st3" d="M259.5,41.2v0.9l-3.7,7v2.8c0,0.5,0.4,0.9,0.9,0.9h27c0.5,0,0.9-0.4,0.9-0.9v-2.8l-3.7-7v-0.9"/>
				<path class="st3" d="M278.1,41.2v0.5c0,1-0.8,1.9-1.9,1.9h-12.1c-1,0-1.9-0.8-1.9-1.9v-0.5"/>
				<line class="st3" x1="268.8" y1="37.9" x2="267.9" y2="37.9"/>
				<line class="st3" x1="270.7" y1="37.9" x2="269.8" y2="37.9"/>
				<line class="st3" x1="272.5" y1="37.9" x2="271.6" y2="37.9"/>
				<path class="st3" d="M281.4,39.3c0,0.3-0.2,0.5-0.5,0.5h-21.4c-0.3,0-0.5-0.2-0.5-0.5v-2.8c0-0.3,0.2-0.5,0.5-0.5h21.4
					c0.3,0,0.5,0.2,0.5,0.5V39.3z"/>
				<line class="st3" x1="265.6" y1="43.5" x2="265.6" y2="42.1"/>
				<line class="st3" x1="267.4" y1="43.5" x2="267.4" y2="42.1"/>
				<line class="st3" x1="269.3" y1="43.5" x2="269.3" y2="42.1"/>
				<line class="st3" x1="271.1" y1="43.5" x2="271.1" y2="42.1"/>
				<line class="st3" x1="273" y1="43.5" x2="273" y2="42.1"/>
				<line class="st3" x1="274.9" y1="43.5" x2="274.9" y2="42.1"/>
				<line class="st3" x1="259.1" y1="32.3" x2="262.3" y2="32.3"/>
				<line class="st3" x1="278.1" y1="32.3" x2="281.4" y2="32.3"/>
			</g>
		</g>
		<g>
			<g>
				<g>
					<polyline class="st3" points="49.4,40.1 49.4,50.8 38.7,50.8 					"/>
					<polyline class="st3" points="45.6,23.9 45.6,27.6 49.4,27.6 					"/>
					<polyline class="st3" points="31.7,50.8 28.9,50.8 28.9,23.9 45.6,23.9 49.4,27.6 49.4,32.7 					"/>
					<g>
						<line class="st3" x1="36.3" y1="51.3" x2="34" y2="49"/>
						<polyline class="st9" points="41,39.2 45.6,34.6 49.4,38.3 						"/>
						<polygon class="st9" points="48.9,34.1 34,49 32.6,52.7 36.3,51.3 51.2,36.4 						"/>
						<line class="st10" x1="38.7" y1="44.3" x2="41" y2="46.6"/>
					</g>
				</g>
			</g>
		</g>
		<g>
			<g>
				<g>
					<rect x="347.9" y="29.5" class="st4" width="28.8" height="21.4"/>
					<rect x="356.3" y="33.3" class="st4" width="2.8" height="2.8"/>
					<rect x="360.9" y="33.3" class="st4" width="2.8" height="2.8"/>
					<rect x="365.6" y="33.3" class="st4" width="2.8" height="2.8"/>
					<rect x="370.2" y="33.3" class="st4" width="2.8" height="2.8"/>
					<rect x="351.6" y="37.9" class="st4" width="2.8" height="2.8"/>
					<rect x="356.3" y="37.9" class="st4" width="2.8" height="2.8"/>
					<rect x="360.9" y="37.9" class="st4" width="2.8" height="2.8"/>
					<rect x="370.2" y="37.9" class="st4" width="2.8" height="2.8"/>
					<rect x="351.6" y="42.6" class="st4" width="2.8" height="2.8"/>
					<rect x="360.9" y="42.6" class="st4" width="2.8" height="2.8"/>
					<rect x="365.6" y="42.6" class="st4" width="2.8" height="2.8"/>
					<rect x="370.2" y="42.6" class="st4" width="2.8" height="2.8"/>
					<polyline class="st4" points="347.9,29.5 347.9,25.8 376.7,25.8 376.7,29.5 					"/>
					<line class="st4" x1="363.3" y1="27.7" x2="364.2" y2="27.7"/>
					<line class="st4" x1="365.1" y1="27.7" x2="366" y2="27.7"/>
					<line class="st4" x1="367" y1="27.7" x2="367.9" y2="27.7"/>
					<line class="st4" x1="356.7" y1="27.7" x2="357.7" y2="27.7"/>
					<line class="st4" x1="358.6" y1="27.7" x2="359.5" y2="27.7"/>
					<line class="st4" x1="360.5" y1="27.7" x2="361.4" y2="27.7"/>
					<g>
						<line class="st4" x1="354.4" y1="33.3" x2="351.6" y2="36.1"/>
						<line class="st4" x1="351.6" y1="33.3" x2="354.4" y2="36.1"/>
					</g>
					<g>
						<line class="st4" x1="359.1" y1="42.6" x2="356.3" y2="45.4"/>
						<line class="st4" x1="356.3" y1="42.6" x2="359.1" y2="45.4"/>
					</g>
					<g>
						<line class="st4" x1="368.4" y1="37.9" x2="365.6" y2="40.7"/>
						<line class="st4" x1="365.6" y1="37.9" x2="368.4" y2="40.7"/>
					</g>
					<line class="st4" x1="376.7" y1="49.1" x2="347.9" y2="49.1"/>
				</g>
			</g>
		</g>
		<g>
			<g>
				<g>
					<polyline class="st4" points="88,25.7 93.1,25.7 93.1,52.7 72.6,52.7 72.6,25.7 77.7,25.7 					"/>
					<rect x="77.7" y="23.9" class="st4" width="10.2" height="4.7"/>
					<polyline class="st4" points="89.4,27.6 90.8,27.6 90.8,48 75,48 75,27.6 76.3,27.6 					"/>
					<polyline class="st4" points="86.1,25.2 86.1,26.6 79.6,26.6 79.6,25.2 					"/>
				</g>
				<line class="st4" x1="88.4" y1="31.3" x2="83.8" y2="31.3"/>
				<line class="st4" x1="88.4" y1="33.6" x2="77.3" y2="33.6"/>
				<line class="st4" x1="88.4" y1="35.5" x2="77.3" y2="35.5"/>
				<line class="st4" x1="88.4" y1="37.3" x2="77.3" y2="37.3"/>
				<line class="st4" x1="88.4" y1="39.2" x2="77.3" y2="39.2"/>
				<line class="st4" x1="88.4" y1="41.1" x2="77.3" y2="41.1"/>
				<line class="st4" x1="83.8" y1="42.9" x2="77.3" y2="42.9"/>
				<g>
					<line class="st4" x1="95.9" y1="39.7" x2="99.6" y2="39.7"/>
					<line class="st4" x1="95.9" y1="49" x2="99.6" y2="49"/>
					<line class="st4" x1="97.7" y1="42" x2="97.7" y2="42.9"/>
					<line class="st4" x1="97.7" y1="43.9" x2="97.7" y2="44.8"/>
					<line class="st4" x1="97.7" y1="45.7" x2="97.7" y2="46.6"/>
					<polygon class="st4" points="95.9,25.7 99.6,25.7 99.6,49 97.7,52.7 95.9,49 					"/>
					<polyline class="st4" points="96.8,25.7 96.8,23.9 98.7,23.9 98.7,25.7 					"/>
				</g>
				<line class="st4" x1="72.6" y1="50.8" x2="93.1" y2="50.8"/>
			</g>
		</g>
	</g>
	<rect x="25.2" y="23.4" class="st11" width="29.8" height="29.8"/>
	<rect x="71.2" y="23.4" class="st11" width="29.8" height="29.8"/>
	<rect x="117.1" y="23.5" class="st11" width="29.8" height="29.8"/>
	<rect x="163" y="23.5" class="st11" width="29.8" height="29.8"/>
	<rect x="209.3" y="23.5" class="st11" width="29.8" height="29.8"/>
	<rect x="255.3" y="23.5" class="st11" width="29.8" height="29.8"/>
	<rect x="301.4" y="23.5" class="st11" width="29.8" height="29.8"/>
	<rect x="347.4" y="23.5" class="st11" width="29.8" height="29.8"/>
</g>
</svg>
