<?xml version="1.0" encoding="utf-8"?>
<!-- Generator: Adobe Illustrator 20.0.0, SVG Export Plug-In . SVG Version: 6.00 Build 0)  -->
<svg version="1.1" id="レイヤー_1" xmlns="http://www.w3.org/2000/svg" xmlns:xlink="http://www.w3.org/1999/xlink" x="0px"
	 y="0px" viewBox="0 0 232.5 48" style="enable-background:new 0 0 232.5 48;" xml:space="preserve">
<style type="text/css">
	.st0{fill:#FFE700;}
	.st1{fill:#0096DF;}
	.st2{fill:#DA007F;}
	.st3{fill:#FFFFFF;}
</style>
<path class="st0" d="M205.5,47.3H20c-11,0-20-9-20-20v-2.7c0-11,9-20,20-20h185.5c11,0,20,9,20,20v2.7
	C225.5,38.3,216.5,47.3,205.5,47.3z"/>
<path class="st1" d="M208.5,42.7H23c-11,0-20-9-20-20V20C3,9,12,0,23,0h185.5c11,0,20,9,20,20v2.7C228.5,33.8,219.5,42.7,208.5,42.7
	z"/>
<path class="st2" d="M212.5,48H27C16,48,7,39,7,28v-2.7c0-11,9-20,20-20h185.5c11,0,20,9,20,20V28C232.5,39,223.5,48,212.5,48z"/>
<g>
	<g>
		<path class="st3" d="M77.6,22.3c-0.8,0.1-1.6,0.1-2.7,0.1c-0.3,0-0.4-0.1-0.4-0.3c0-0.3-0.1-0.8-0.2-1.4c0.4,0.1,0.8,0.1,1.2,0.1
			c0.7,0,1.4-0.1,2-0.1c0-0.5,0-1.1,0-1.8c0-0.4,0-0.9-0.1-1.3c0.8,0,1.5,0.2,1.9,0.3c0.2,0,0.3,0.2,0.3,0.3c0,0.1,0,0.1-0.1,0.3
			c-0.1,0.2-0.2,0.4-0.2,0.6c0,0.4-0.1,0.8-0.1,1.3c0.7-0.1,1.4-0.4,2-0.6c0.1,0,0.3,0,0.3,0.1c0.1,0.4,0.1,0.8,0.1,1.2
			c0,0.2,0,0.2-0.2,0.3c-1.1,0.3-1.3,0.4-2.3,0.6c0,0.8,0,1.6,0,2.3c1.5-0.6,2.9-0.9,3.9-0.9c2,0,3.4,1.3,3.4,3.2
			c0,2-1.3,3.2-3.5,3.2c-0.5,0-1-0.1-1.3-0.1c-0.3-0.1-0.4-0.2-0.4-0.5c0-0.4-0.1-0.9-0.5-1.4c0.8,0.3,1.4,0.3,2,0.3
			c0.9,0,1.7-0.5,1.7-1.6c0-1-0.6-1.6-1.8-1.6c-0.9,0-2,0.2-3.7,1.1c0,0.7,0,1.2,0.1,1.9c0,0.7,0.1,1.7,0.1,2.1c0,0.2,0,0.5-0.2,0.5
			c-0.4,0.1-0.9,0.2-1.2,0.2c-0.2,0-0.2-0.1-0.4-0.3c-0.4-0.6-1.3-1.4-2.3-2c-0.2,0.1-0.4,0.2-0.5,0.4c-0.1,0.1-0.2,0.1-0.3,0.1
			c-0.1,0-0.3-0.1-0.4-0.3c-0.2-0.3-0.5-1-0.7-1.5c0.4-0.1,0.9-0.3,1.5-0.6c0.7-0.4,1.4-0.8,2.6-1.5V22.3z M76.1,27.8
			c0.4,0.2,1,0.5,1.5,0.7c0.1,0,0.2,0,0.2-0.1c0-0.4-0.1-1.2-0.1-1.7C77.3,27,76.7,27.4,76.1,27.8z M83.8,19.4
			c0.1-0.2,0.2-0.2,0.3-0.2c1.5,0.4,2.6,1.1,3.4,2c0.1,0.1,0.1,0.1,0.1,0.2s0,0.1-0.1,0.2c-0.2,0.3-0.6,0.8-0.9,1.1
			c0,0.1-0.3,0.1-0.3,0c-0.8-0.9-2-1.5-3.2-2C83.3,20.2,83.5,19.8,83.8,19.4z"/>
		<path class="st3" d="M94.9,17.2c1,0,1.5,0,1.6,0c0.1,0,0.2,0,0.2,0.2c0,0.1,0,0.6,0,1.6V21c0,1,0,1.5,0,1.6c0,0.2,0,0.2-0.2,0.2
			c-0.1,0-0.6,0-1.6,0h-2.6v5c0,2.2,0,3.3,0,3.4c0,0.2,0,0.2-0.2,0.2h-1.4c-0.2,0-0.2,0-0.2-0.2c0-0.1,0-1.2,0-3.4v-6.9
			c0-2.2,0-3.3,0-3.4c0-0.2,0-0.2,0.2-0.2c0.1,0,0.7,0,1.9,0H94.9z M92.4,18.4v0.9h2.7v-0.9H92.4z M95.1,20.5h-2.7v1.1h2.7V20.5z
			 M94.5,29.8c-0.2,0-0.2,0-0.2-0.2c0-0.1,0-0.5,0-2.6v-1.2c0-1.2,0-1.6,0-1.7c0-0.2,0-0.2,0.2-0.2c0.1,0,0.5,0,1.7,0h2.1
			c1.2,0,1.6,0,1.7,0c0.2,0,0.2,0,0.2,0.2c0,0.1,0,0.5,0,1.4v1.2c0,2,0,2.4,0,2.5c0,0.2,0,0.2-0.2,0.2h-1.2c-0.2,0-0.2,0-0.2-0.2
			v-0.5h-2.8v0.9c0,0.2,0,0.2-0.2,0.2H94.5z M95.9,27.4h2.8v-2h-2.8V27.4z M103.9,26.1c0,1.1,0.1,2.4,0.1,3.2c0,0.8-0.1,1.1-0.5,1.5
			c-0.4,0.3-0.8,0.4-2.2,0.4c-0.5,0-0.5,0-0.6-0.5c-0.1-0.5-0.2-0.8-0.4-1.2c0.5,0.1,0.9,0.1,1.3,0.1c0.5,0,0.7-0.1,0.7-0.6v-6.2
			h-2.6c-1.2,0-1.7,0-1.8,0c-0.2,0-0.2,0-0.2-0.2c0-0.1,0-0.5,0-1.4v-2.3c0-1,0-1.3,0-1.5c0-0.2,0-0.2,0.2-0.2c0.1,0,0.5,0,1.8,0
			h2.3c1.2,0,1.7,0,1.8,0c0.2,0,0.2,0,0.2,0.2c0,0.1,0,0.8,0,2.1V26.1z M99.4,18.4v0.9h2.9v-0.9H99.4z M102.3,21.6v-1.1h-2.9v1.1
			H102.3z"/>
		<path class="st3" d="M110,19.5c0.1,0.1,0.3,0.2,0.3,0.3c0,0.1,0,0.3-0.1,0.4c-0.1,0.2-0.1,0.9-0.1,1.6c0,1,0,2.2,0.3,3.6
			c0.2,1.3,0.6,2.4,1.3,2.4c0.5,0,0.9-0.6,1.5-2.2c0.4,0.6,0.7,0.9,1,1.2c0.2,0.2,0.2,0.4,0.1,0.6c-0.6,1.6-1.6,2.5-2.7,2.5
			c-1.2,0-2.6-1.5-3-4.2c-0.3-1.5-0.4-3.2-0.4-4.7c0-0.9,0-1.4-0.2-2.1C108.7,19.1,109.5,19.2,110,19.5z M117.4,20.5
			c0.1,0,0.1-0.1,0.2-0.1c0.1,0,0.1,0,0.2,0.1c1.5,1.3,2.7,3.5,3.1,5.5c0,0.2,0,0.3-0.2,0.4c-0.4,0.3-0.8,0.5-1.2,0.6
			c-0.2,0.1-0.3,0-0.3-0.2c-0.5-2.3-1.4-4-3-5.6C116.8,20.8,117.2,20.6,117.4,20.5z"/>
		<path class="st3" d="M127.7,22c-0.9,0.7-1.9,1.3-3,1.9c-0.2,0.1-0.3,0.2-0.4,0.2c-0.1,0-0.2-0.1-0.3-0.4c-0.2-0.4-0.5-0.8-0.8-1.1
			c2.9-1.3,4.9-3,6.2-4.9c0.3-0.4,0.5-0.7,0.6-1.1c0.6,0.1,1.2,0.2,1.7,0.3c0.2,0.1,0.3,0.1,0.3,0.3c0,0.1,0,0.2-0.2,0.2
			c0,0-0.1,0.1-0.1,0.1c1.9,2.4,4.1,3.9,6.8,4.9c-0.3,0.3-0.5,0.8-0.7,1.2c-0.1,0.3-0.2,0.4-0.3,0.4c-0.1,0-0.2,0-0.4-0.1
			c-1.1-0.5-2.2-1.1-3.1-1.8v1.1c0,0.2,0,0.2-0.2,0.2c-0.1,0-0.5,0-1.8,0h-2.5c-1.3,0-1.7,0-1.8,0c-0.2,0-0.2,0-0.2-0.2V22z
			 M126.2,31.3c-0.2,0-0.2,0-0.2-0.2c0-0.1,0-0.5,0-2.8v-1.4c0-1.4,0-1.8,0-1.9c0-0.2,0-0.2,0.2-0.2c0.1,0,0.7,0,2.2,0h5.1
			c1.5,0,2.1,0,2.2,0c0.2,0,0.2,0,0.2,0.2c0,0.1,0,0.6,0,1.7v1.6c0,2.3,0,2.7,0,2.8c0,0.2,0,0.2-0.2,0.2h-1.4c-0.2,0-0.2,0-0.2-0.2
			v-0.5h-6.4v0.6c0,0.2,0,0.2-0.2,0.2H126.2z M127.7,29h6.4v-2.8h-6.4V29z M132.2,21.8c0.9,0,1.4,0,1.6,0c-1.2-0.9-2.1-1.9-2.9-3
			c-0.8,1.2-1.8,2.1-2.9,3c0.2,0,0.6,0,1.7,0H132.2z"/>
		<path class="st3" d="M145.9,22.9c1.4-1.2,2.9-1.9,4.6-1.9c2.4,0,4,1.6,4,4.1c0,2.5-1.5,4.2-4.3,5.2c-0.1,0-0.2,0.1-0.3,0.1
			c-0.2,0-0.3-0.1-0.4-0.2c-0.3-0.4-0.7-0.7-1.3-1.1c1.6-0.4,2.4-0.9,3.2-1.6c0.7-0.7,1.1-1.5,1.1-2.4c0-1.5-0.8-2.5-2.4-2.5
			c-1.5,0-2.7,0.7-4.3,2c0,2,0.1,4,0.1,6.1c0,0.1-0.1,0.2-0.2,0.2c-0.2,0-0.9,0.1-1.4,0.1c-0.1,0-0.2-0.1-0.2-0.2
			c0-1.6,0-3.3,0.1-4.9c-0.8,1.2-1.6,2.3-2.2,3.2c-0.1,0.1-0.1,0.2-0.2,0.2c0,0-0.1,0-0.2-0.1c-0.4-0.3-0.7-0.6-1-1
			c-0.1,0-0.1-0.1-0.1-0.2c0-0.1,0-0.1,0.1-0.2c1.4-1.7,2.3-2.8,3.5-4.5c0-0.4,0-0.8,0-1.1c-0.5,0.1-1.2,0.4-1.8,0.6
			c-0.3,0.1-0.4,0.3-0.5,0.3c-0.1,0-0.2-0.1-0.3-0.3c-0.2-0.4-0.4-0.9-0.6-1.4c0.4,0,0.6-0.1,1.1-0.2c0.4-0.1,1-0.2,2.3-0.6
			c0-0.7,0-1.4,0-2.1c0-0.4,0-0.9-0.2-1.4c0.9,0.1,1.5,0.2,1.9,0.3c0.3,0.1,0.4,0.3,0.3,0.6c-0.1,0.2-0.1,0.4-0.2,0.7
			c0,0.4,0,0.8-0.1,1.4c0,0,0.1,0,0.1,0c0,0,0.1,0,0.1,0c0.1,0,0.3,0.2,0.4,0.4c0.2,0.3,0.3,0.4,0.3,0.5s0,0.2-0.3,0.4
			c-0.2,0.3-0.5,0.6-0.8,1.2V22.9z"/>
		<path class="st3" d="M160.7,20.2c0-0.8-0.1-1.1-0.2-1.7c0.8,0.1,1.5,0.2,1.9,0.3c0.2,0,0.3,0.2,0.3,0.3c0,0.1,0,0.2-0.1,0.3
			c-0.1,0.2-0.1,0.4-0.2,0.7c0,0.4,0,1,0,1.5c1.1-0.1,2.8-0.3,4-0.4c0-0.8,0-1.7,0-2.3c0-0.6,0-1.2-0.2-1.8c1,0.1,1.5,0.2,1.9,0.3
			c0.2,0.1,0.3,0.1,0.3,0.3c0,0.1-0.1,0.3-0.1,0.3c-0.1,0.3-0.1,0.4-0.2,0.7c0,0.9,0,1.5-0.1,2.2c1.3-0.1,2.3-0.1,3.1-0.2
			c0.1,0,0.2,0,0.2,0.2c0,0.4,0,0.9,0,1.3c0,0.2,0,0.2-0.2,0.2c-1.1,0-2.1,0-3.2,0.1c0,1.1-0.1,1.8-0.2,2.5
			c-0.2,1.2-0.9,1.8-2.1,1.8c-0.3,0-0.7,0-1,0c-0.3,0-0.3-0.1-0.3-0.4c0-0.5-0.1-0.9-0.4-1.4c0.5,0.1,1,0.2,1.4,0.2
			c0.4,0,0.7-0.1,0.8-0.7c0.1-0.5,0.1-1.1,0.1-1.7c-1.3,0.1-2.7,0.3-3.9,0.4c0,1.7,0,2.7,0,3.6c0.1,1.3,0.4,1.6,2.4,1.6
			c1.4,0,3-0.1,4.1-0.3c0.2,0,0.3,0,0.3,0.2c0.1,0.3,0.1,1,0.1,1.3c0,0.2-0.1,0.3-0.2,0.3c-0.7,0.1-2.7,0.2-4,0.2
			c-3.2,0-4.2-0.7-4.4-2.8c-0.1-0.9-0.1-2.2-0.1-3.9c-0.8,0.1-1.3,0.2-1.9,0.3c-0.2,0-0.4,0.1-0.7,0.2c-0.2,0.1-0.3,0-0.4-0.2
			c-0.2-0.4-0.4-1.1-0.4-1.6c0.3,0,1-0.1,1.7-0.2c0.4-0.1,1.2-0.2,1.8-0.3V20.2z"/>
	</g>
</g>
</svg>
