<?xml version="1.0" encoding="utf-8"?>
<!-- Generator: Adobe Illustrator 20.0.0, SVG Export Plug-In . SVG Version: 6.00 Build 0)  -->
<svg version="1.1" id="レイヤー_1" xmlns="http://www.w3.org/2000/svg" xmlns:xlink="http://www.w3.org/1999/xlink" x="0px"
	 y="0px" viewBox="0 0 48.5 48.5" style="enable-background:new 0 0 48.5 48.5;" xml:space="preserve">
<style type="text/css">
	.st0{fill:none;stroke:#2958B7;stroke-miterlimit:10;}
	.st1{fill:#2958B7;}
</style>
<path class="st0" d="M45,48H3.5c-1.7,0-3-1.3-3-3V3.5c0-1.7,1.3-3,3-3H45c1.7,0,3,1.3,3,3V45C48,46.7,46.7,48,45,48z"/>
<g>
	<path class="st1" d="M29.2,16.1V19h-1.8c-0.6,0-1.1,0.1-1.3,0.4c-0.2,0.3-0.3,0.7-0.3,1.2v2.1h3.3L28.7,26h-2.8v8.5h-3.4V26h-2.8
		v-3.3h2.8v-2.4c0-1.4,0.4-2.5,1.2-3.2s1.8-1.1,3.1-1.1C27.8,15.9,28.6,16,29.2,16.1z"/>
</g>
</svg>
