<?xml version="1.0" encoding="utf-8"?>
<!-- Generator: Adobe Illustrator 20.0.0, SVG Export Plug-In . SVG Version: 6.00 Build 0)  -->
<svg version="1.1" id="レイヤー_1" xmlns="http://www.w3.org/2000/svg" xmlns:xlink="http://www.w3.org/1999/xlink" x="0px"
	 y="0px" viewBox="0 0 64.3 64.1" style="enable-background:new 0 0 64.3 64.1;" xml:space="preserve">
<style type="text/css">
	.st0{fill:none;stroke:#000000;stroke-width:2;stroke-miterlimit:10;}
	.st1{fill:none;}
</style>
<g>
	<g>
		<polyline class="st0" points="63.3,21 63.3,63 55.3,63 55.3,21 		"/>
		<line class="st0" x1="59.3" y1="21" x2="59.3" y2="63"/>
		<rect x="1.3" y="1" class="st0" width="8" height="62"/>
		<g>
			<rect x="15.3" y="1" class="st0" width="4" height="59"/>
			<line class="st0" x1="17.3" y1="60" x2="17.3" y2="64"/>
			<line class="st0" x1="15.3" y1="55" x2="19.3" y2="55"/>
			<line class="st0" x1="15.3" y1="51" x2="19.3" y2="51"/>
			<line class="st0" x1="15.3" y1="47" x2="19.3" y2="47"/>
			<line class="st0" x1="15.3" y1="7" x2="19.3" y2="7"/>
		</g>
		<line class="st0" x1="5.3" y1="60" x2="5.3" y2="58"/>
		<line class="st0" x1="9.3" y1="49" x2="6.3" y2="49"/>
		<line class="st0" x1="9.3" y1="55" x2="6.3" y2="55"/>
		<line class="st0" x1="9.3" y1="43" x2="6.3" y2="43"/>
		<line class="st0" x1="9.3" y1="37" x2="6.3" y2="37"/>
		<line class="st0" x1="9.3" y1="31" x2="6.3" y2="31"/>
		<line class="st0" x1="9.3" y1="25" x2="6.3" y2="25"/>
		<line class="st0" x1="9.3" y1="19" x2="6.3" y2="19"/>
		<line class="st0" x1="9.3" y1="13" x2="6.3" y2="13"/>
		<line class="st0" x1="9.3" y1="7" x2="6.3" y2="7"/>
		<rect x="25.3" y="1" class="st0" width="4" height="4"/>
		<rect x="45.3" y="1" class="st0" width="4" height="4"/>
		<rect x="25.3" y="21" class="st0" width="4" height="4"/>
		<rect x="45.3" y="21" class="st0" width="4" height="4"/>
		<line class="st0" x1="32.3" y1="3" x2="34.3" y2="3"/>
		<line class="st0" x1="36.3" y1="3" x2="38.3" y2="3"/>
		<line class="st0" x1="40.3" y1="3" x2="42.3" y2="3"/>
		<line class="st0" x1="32.3" y1="23" x2="34.3" y2="23"/>
		<line class="st0" x1="36.3" y1="23" x2="38.3" y2="23"/>
		<line class="st0" x1="40.3" y1="23" x2="42.3" y2="23"/>
		<g>
			<line class="st0" x1="27.3" y1="8" x2="27.3" y2="10"/>
			<line class="st0" x1="27.3" y1="12" x2="27.3" y2="14"/>
			<line class="st0" x1="27.3" y1="16" x2="27.3" y2="18"/>
		</g>
		<g>
			<line class="st0" x1="47.3" y1="8" x2="47.3" y2="10"/>
			<line class="st0" x1="47.3" y1="12" x2="47.3" y2="14"/>
			<line class="st0" x1="47.3" y1="16" x2="47.3" y2="18"/>
		</g>
		<circle class="st0" cx="37" cy="13" r="6"/>
		<polygon class="st0" points="63.3,21 55.3,21 55.3,13 57.3,6 57.3,4 61.3,4 61.3,6 63.3,13 		"/>
		<line class="st0" x1="59.3" y1="4" x2="59.3" y2="0"/>
		<line class="st0" x1="55.3" y1="13" x2="63.3" y2="13"/>
		<path class="st0" d="M25.3,45V34c0-1.7,1.3-3,3-3l0,0c1.7,0,3,1.3,3,3v11"/>
		<line class="st0" x1="23.3" y1="45" x2="33.3" y2="45"/>
		<line class="st0" x1="26.3" y1="64" x2="26.3" y2="45"/>
		<line class="st0" x1="30.3" y1="64" x2="30.3" y2="45"/>
		<g>
			<path class="st0" d="M49.3,61c0,1.1-0.9,2-2,2h-8c-1.1,0-2-0.9-2-2V33c0-1.1,0.9-2,2-2h8c1.1,0,2,0.9,2,2V61z"/>
			<line class="st0" x1="37.3" y1="47" x2="49.3" y2="47"/>
		</g>
	</g>
</g>
<rect y="0.1" class="st1" width="64" height="64"/>
</svg>
