<?xml version="1.0" encoding="utf-8"?>
<!-- Generator: Adobe Illustrator 20.0.0, SVG Export Plug-In . SVG Version: 6.00 Build 0)  -->
<svg version="1.1" id="レイヤー_1" xmlns="http://www.w3.org/2000/svg" xmlns:xlink="http://www.w3.org/1999/xlink" x="0px"
	 y="0px" viewBox="0 0 65 65" style="enable-background:new 0 0 65 65;" xml:space="preserve">
<style type="text/css">
	.st0{fill:none;stroke:#222829;stroke-miterlimit:10;}
	.st1{fill:none;stroke:#DDDDDD;stroke-miterlimit:10;}
</style>
<g>
	<g>
		<line class="st0" x1="22" y1="30" x2="22" y2="24.5"/>
		<line class="st0" x1="43" y1="24.5" x2="43" y2="30"/>
		<polyline class="st0" points="41,28.5 41,20 38,17 24,17 24,28.5 		"/>
		<line class="st0" x1="26.5" y1="23" x2="38.5" y2="23"/>
		<line class="st0" x1="26.5" y1="25" x2="38.5" y2="25"/>
		<line class="st0" x1="26.5" y1="27" x2="38.5" y2="27"/>
		<polyline class="st0" points="20.5,32 18.5,32 18.5,35.5 		"/>
		<line class="st0" x1="44.5" y1="32" x2="46.5" y2="32"/>
		<line class="st0" x1="46.5" y1="30.5" x2="46.5" y2="33.5"/>
		<g>
			<line class="st0" x1="39" y1="41" x2="38" y2="41"/>
			<line class="st0" x1="41" y1="41" x2="40" y2="41"/>
			<line class="st0" x1="37" y1="41" x2="36" y2="41"/>
			<line class="st0" x1="29" y1="41" x2="28" y2="41"/>
			<line class="st0" x1="27" y1="41" x2="26" y2="41"/>
			<line class="st0" x1="25" y1="41" x2="24" y2="41"/>
			<line class="st0" x1="35" y1="41" x2="34" y2="41"/>
			<line class="st0" x1="33" y1="41" x2="32" y2="41"/>
			<line class="st0" x1="31" y1="41" x2="30" y2="41"/>
			<line class="st0" x1="38" y1="43" x2="37" y2="43"/>
			<line class="st0" x1="40" y1="43" x2="39" y2="43"/>
			<line class="st0" x1="42" y1="43" x2="41" y2="43"/>
			<line class="st0" x1="36" y1="43" x2="35" y2="43"/>
			<line class="st0" x1="34" y1="43" x2="33" y2="43"/>
			<line class="st0" x1="32" y1="43" x2="31" y2="43"/>
			<line class="st0" x1="30" y1="43" x2="29" y2="43"/>
			<line class="st0" x1="28" y1="43" x2="27" y2="43"/>
			<line class="st0" x1="26" y1="43" x2="25" y2="43"/>
			<line class="st0" x1="24" y1="43" x2="23" y2="43"/>
			<line class="st0" x1="26" y1="45" x2="25" y2="45"/>
			<line class="st0" x1="24" y1="45" x2="23" y2="45"/>
			<line class="st0" x1="23" y1="41" x2="22" y2="41"/>
			<line class="st0" x1="22" y1="43" x2="21" y2="43"/>
			<line class="st0" x1="22" y1="45" x2="21" y2="45"/>
			<line class="st0" x1="42" y1="45" x2="41" y2="45"/>
			<line class="st0" x1="43" y1="41" x2="42" y2="41"/>
			<line class="st0" x1="44" y1="43" x2="43" y2="43"/>
			<line class="st0" x1="44" y1="45" x2="43" y2="45"/>
			<line class="st0" x1="40" y1="45" x2="39" y2="45"/>
			<line class="st0" x1="27" y1="45" x2="38" y2="45"/>
		</g>
		<polyline class="st0" points="41,20 38,20 38,17 		"/>
		<line class="st0" x1="26.5" y1="20" x2="35.5" y2="20"/>
		<path class="st0" d="M21,35.5v1L17,44v3c0,0.6,0.4,1,1,1h29c0.6,0,1-0.4,1-1v-3l-4-7.5v-1"/>
		<path class="st0" d="M41,35.5V36c0,1.1-0.9,2-2,2H26c-1.1,0-2-0.9-2-2v-0.5"/>
		<line class="st0" x1="31" y1="32" x2="30" y2="32"/>
		<line class="st0" x1="33" y1="32" x2="32" y2="32"/>
		<line class="st0" x1="35" y1="32" x2="34" y2="32"/>
		<path class="st0" d="M44.5,33.5c0,0.3-0.2,0.5-0.5,0.5H21c-0.3,0-0.5-0.2-0.5-0.5v-3c0-0.3,0.2-0.5,0.5-0.5h23
			c0.3,0,0.5,0.2,0.5,0.5V33.5z"/>
		<line class="st0" x1="27.5" y1="38" x2="27.5" y2="36.5"/>
		<line class="st0" x1="29.5" y1="38" x2="29.5" y2="36.5"/>
		<line class="st0" x1="31.5" y1="38" x2="31.5" y2="36.5"/>
		<line class="st0" x1="33.5" y1="38" x2="33.5" y2="36.5"/>
		<line class="st0" x1="35.5" y1="38" x2="35.5" y2="36.5"/>
		<line class="st0" x1="37.5" y1="38" x2="37.5" y2="36.5"/>
		<line class="st0" x1="20.5" y1="26" x2="24" y2="26"/>
		<line class="st0" x1="41" y1="26" x2="44.5" y2="26"/>
	</g>
</g>
<rect x="0.5" y="0.5" class="st1" width="64" height="64"/>
</svg>
