<?xml version="1.0" encoding="utf-8"?>
<!-- Generator: Adobe Illustrator 20.0.0, SVG Export Plug-In . SVG Version: 6.00 Build 0)  -->
<svg version="1.1" id="レイヤー_1" xmlns="http://www.w3.org/2000/svg" xmlns:xlink="http://www.w3.org/1999/xlink" x="0px"
	 y="0px" viewBox="0 0 65 65" style="enable-background:new 0 0 65 65;" xml:space="preserve">
<style type="text/css">
	.st0{fill:none;stroke:#222829;stroke-miterlimit:10;}
	.st1{fill:none;stroke:#DDDDDD;stroke-miterlimit:10;}
</style>
<g>
	<g>
		<polyline class="st0" points="48.3,27.4 48.3,47.9 44.3,47.9 44.3,27.4 		"/>
		<line class="st0" x1="46.3" y1="27.4" x2="46.3" y2="48.4"/>
		<rect x="17.3" y="16.9" class="st0" width="4" height="31"/>
		<g>
			<rect x="24.3" y="16.9" class="st0" width="2" height="30"/>
			<line class="st0" x1="25.3" y1="46.4" x2="25.3" y2="48.4"/>
			<line class="st0" x1="23.8" y1="43.9" x2="25.8" y2="43.9"/>
			<line class="st0" x1="23.8" y1="41.9" x2="25.8" y2="41.9"/>
			<line class="st0" x1="23.8" y1="39.9" x2="25.8" y2="39.9"/>
			<line class="st0" x1="23.8" y1="19.9" x2="25.8" y2="19.9"/>
		</g>
		<line class="st0" x1="19.3" y1="46.4" x2="19.3" y2="45.4"/>
		<line class="st0" x1="20.8" y1="40.9" x2="19.8" y2="40.9"/>
		<line class="st0" x1="20.8" y1="43.9" x2="19.8" y2="43.9"/>
		<line class="st0" x1="20.8" y1="37.9" x2="19.8" y2="37.9"/>
		<line class="st0" x1="20.8" y1="34.9" x2="19.8" y2="34.9"/>
		<line class="st0" x1="20.8" y1="31.9" x2="19.8" y2="31.9"/>
		<line class="st0" x1="20.8" y1="28.9" x2="19.8" y2="28.9"/>
		<line class="st0" x1="20.8" y1="25.9" x2="19.8" y2="25.9"/>
		<line class="st0" x1="20.8" y1="22.9" x2="19.8" y2="22.9"/>
		<line class="st0" x1="20.8" y1="19.9" x2="19.8" y2="19.9"/>
		<rect x="29.3" y="17.2" class="st0" width="2" height="2"/>
		<rect x="39.3" y="17.2" class="st0" width="2" height="2"/>
		<rect x="29.3" y="27.2" class="st0" width="2" height="2"/>
		<rect x="39.3" y="27.2" class="st0" width="2" height="2"/>
		<line class="st0" x1="32.8" y1="17.9" x2="33.8" y2="17.9"/>
		<line class="st0" x1="34.8" y1="17.9" x2="35.8" y2="17.9"/>
		<line class="st0" x1="36.8" y1="17.9" x2="37.8" y2="17.9"/>
		<line class="st0" x1="32.8" y1="27.9" x2="33.8" y2="27.9"/>
		<line class="st0" x1="34.8" y1="27.9" x2="35.8" y2="27.9"/>
		<line class="st0" x1="36.8" y1="27.9" x2="37.8" y2="27.9"/>
		<g>
			<line class="st0" x1="30.3" y1="20.4" x2="30.3" y2="21.4"/>
			<line class="st0" x1="30.3" y1="22.4" x2="30.3" y2="23.4"/>
			<line class="st0" x1="30.3" y1="24.4" x2="30.3" y2="25.4"/>
		</g>
		<g>
			<line class="st0" x1="40.3" y1="20.4" x2="40.3" y2="21.4"/>
			<line class="st0" x1="40.3" y1="22.4" x2="40.3" y2="23.4"/>
			<line class="st0" x1="40.3" y1="24.4" x2="40.3" y2="25.4"/>
		</g>
		<circle class="st0" cx="35.2" cy="23" r="3"/>
		<polygon class="st0" points="48.3,26.9 44.3,26.9 44.3,23 45.3,19.5 45.3,18.9 47.3,18.9 47.3,19.5 48.3,23 		"/>
		<line class="st0" x1="46.3" y1="18.4" x2="46.3" y2="16.4"/>
		<line class="st0" x1="43.8" y1="22.9" x2="47.8" y2="22.9"/>
		<path class="st0" d="M29.3,39.4v-5.9c0-0.8,0.7-1.5,1.5-1.5l0,0c0.8,0,1.5,0.7,1.5,1.5v5.9"/>
		<line class="st0" x1="27.8" y1="38.9" x2="32.8" y2="38.9"/>
		<line class="st0" x1="29.3" y1="48.4" x2="29.3" y2="39.4"/>
		<line class="st0" x1="31.3" y1="48.4" x2="31.3" y2="39.4"/>
		<g>
			<path class="st0" d="M41.3,46.9c0,0.6-0.4,1-1,1h-4c-0.6,0-1-0.4-1-1v-14c0-0.6,0.4-1,1-1h4c0.6,0,1,0.4,1,1V46.9z"/>
			<line class="st0" x1="34.8" y1="39.9" x2="40.8" y2="39.9"/>
		</g>
	</g>
</g>
<rect x="0.5" y="0.5" class="st1" width="64" height="64"/>
</svg>
