<?xml version="1.0" encoding="utf-8"?>
<!-- Generator: Adobe Illustrator 20.0.0, SVG Export Plug-In . SVG Version: 6.00 Build 0)  -->
<svg version="1.1" id="レイヤー_1" xmlns="http://www.w3.org/2000/svg" xmlns:xlink="http://www.w3.org/1999/xlink" x="0px"
	 y="0px" viewBox="0 0 65 65" style="enable-background:new 0 0 65 65;" xml:space="preserve">
<style type="text/css">
	.st0{fill:none;stroke:#222829;stroke-linejoin:round;stroke-miterlimit:10;}
	.st1{fill:none;stroke:#DDDDDD;stroke-miterlimit:10;}
</style>
<g>
	<g>
		<g>
			<path class="st0" d="M44.5,46.5"/>
			<g>
				<line class="st0" x1="39" y1="27.6" x2="45" y2="27.6"/>
				<line class="st0" x1="39" y1="25.6" x2="45" y2="25.6"/>
				<line class="st0" x1="39" y1="29.6" x2="45" y2="29.6"/>
				<line class="st0" x1="39" y1="31.6" x2="45" y2="31.6"/>
				<line class="st0" x1="32" y1="37.6" x2="38" y2="37.6"/>
				<line class="st0" x1="25" y1="39.6" x2="31" y2="39.6"/>
				<line class="st0" x1="25" y1="37.6" x2="31" y2="37.6"/>
				<line class="st0" x1="32" y1="39.6" x2="38" y2="39.6"/>
				<line class="st0" x1="25" y1="41.6" x2="31" y2="41.6"/>
				<line class="st0" x1="32" y1="41.6" x2="38" y2="41.6"/>
				<line class="st0" x1="25" y1="43.6" x2="31" y2="43.6"/>
				<line class="st0" x1="32" y1="43.6" x2="38" y2="43.6"/>
				<rect x="25.5" y="25.6" class="st0" width="12" height="6"/>
				<rect x="39.5" y="37.6" class="st0" width="5" height="6"/>
				<line class="st0" x1="39" y1="39.6" x2="44" y2="39.6"/>
				<line class="st0" x1="44" y1="41.6" x2="39" y2="41.6"/>
				<line class="st0" x1="25" y1="23.6" x2="45" y2="23.6"/>
				<rect x="25.5" y="33.6" class="st0" width="19" height="2"/>
				<line class="st0" x1="29" y1="28.6" x2="30" y2="28.6"/>
				<line class="st0" x1="31" y1="28.6" x2="32" y2="28.6"/>
				<line class="st0" x1="33" y1="28.6" x2="34" y2="28.6"/>
			</g>
			<path class="st0" d="M18,21.6h-1.5v21.9c0,1.7,1.3,3,3,3c1.7,0,3-1.3,3-3V21l2.5-2.5l2.5,2.5l2.5-2.5l2.5,2.5l2.5-2.5l2.5,2.5
				l2.5-2.5l2.5,2.5l2.5-2.5l2.5,2.5v22.5c0,1.7-1.3,3.1-3,3.1H19"/>
			<polyline class="st0" points="21,21.6 19.5,21.6 19.5,44.1 			"/>
		</g>
	</g>
</g>
<rect x="0.5" y="0.5" class="st1" width="64" height="64"/>
</svg>
