<?xml version="1.0" encoding="utf-8"?>
<!-- Generator: Adobe Illustrator 20.0.0, SVG Export Plug-In . SVG Version: 6.00 Build 0)  -->
<svg version="1.1" id="レイヤー_1" xmlns="http://www.w3.org/2000/svg" xmlns:xlink="http://www.w3.org/1999/xlink" x="0px"
	 y="0px" viewBox="0 0 64 64" style="enable-background:new 0 0 64 64;" xml:space="preserve">
<style type="text/css">
	.st0{fill:none;stroke:#AAAAAA;stroke-width:2;stroke-miterlimit:10;}
	.st1{fill:none;stroke:#AAAAAA;stroke-width:2;stroke-linejoin:round;stroke-miterlimit:10;}
	.st2{fill:none;}
</style>
<g>
	<g>
		<path class="st0" d="M46,23V10c0-5-4-9-9-9c-5,0-9,4-9,9v13"/>
		<path class="st0" d="M38,15v-5c0-5-4-9-9-9c-5,0-9,4-9,9v5"/>
		<line class="st0" x1="43" y1="23" x2="49" y2="23"/>
		<line class="st0" x1="25" y1="23" x2="31" y2="23"/>
		<g>
			<path class="st0" d="M13,45c3,0,3,4,6,4c3,0,3-4,6-4c3,0,3,4,6,4c3,0,3-4,6-4c3,0,3,4,6,4c3,0,3-4,6-4c3,0,3,4,6,4c3,0,3-4,6-4"
				/>
		</g>
		<line class="st0" x1="32" y1="55" x2="34" y2="55"/>
		<line class="st0" x1="36" y1="55" x2="38" y2="55"/>
		<line class="st0" x1="40" y1="55" x2="42" y2="55"/>
		<path class="st1" d="M8,63h48c2.8,0,5-2.2,5-5V15H13v43C13,60.8,10.8,63,8,63c-2.8,0-5-2.2-5-5V15h7"/>
		<path class="st1" d="M8,20"/>
		<path class="st1" d="M13,15c0,2.8-2.2,5-5,5c-2.8,0-5-2.2-5-5"/>
		<line class="st1" x1="8" y1="25" x2="8" y2="58"/>
	</g>
</g>
<rect class="st2" width="64" height="64"/>
</svg>
