<?xml version="1.0" encoding="utf-8"?>
<!-- Generator: Adobe Illustrator 20.0.0, SVG Export Plug-In . SVG Version: 6.00 Build 0)  -->
<svg version="1.1" id="レイヤー_1" xmlns="http://www.w3.org/2000/svg" xmlns:xlink="http://www.w3.org/1999/xlink" x="0px"
	 y="0px" viewBox="0 0 64 64" style="enable-background:new 0 0 64 64;" xml:space="preserve">
<style type="text/css">
	.st0{fill:none;stroke:#AAAAAA;stroke-width:2;stroke-linejoin:round;stroke-miterlimit:10;}
	.st1{fill:none;}
</style>
<g>
	<g>
		<g>
			<path class="st0" d="M56.3,59.9"/>
			<g>
				<line class="st0" x1="46" y1="22.1" x2="58" y2="22.1"/>
				<line class="st0" x1="46" y1="18.1" x2="58" y2="18.1"/>
				<line class="st0" x1="46" y1="26.1" x2="58" y2="26.1"/>
				<line class="st0" x1="46" y1="30.1" x2="58" y2="30.1"/>
				<line class="st0" x1="32" y1="42.1" x2="44" y2="42.1"/>
				<line class="st0" x1="18" y1="46.1" x2="30" y2="46.1"/>
				<line class="st0" x1="18" y1="42.1" x2="30" y2="42.1"/>
				<line class="st0" x1="32" y1="46.1" x2="44" y2="46.1"/>
				<line class="st0" x1="18" y1="50.1" x2="30" y2="50.1"/>
				<line class="st0" x1="32" y1="50.1" x2="44" y2="50.1"/>
				<line class="st0" x1="18" y1="54.1" x2="30" y2="54.1"/>
				<line class="st0" x1="32" y1="54.1" x2="44" y2="54.1"/>
				<rect x="19" y="18.1" class="st0" width="24" height="12"/>
				<rect x="47" y="42.1" class="st0" width="10" height="12"/>
				<line class="st0" x1="47" y1="46.1" x2="57" y2="46.1"/>
				<line class="st0" x1="57" y1="50.1" x2="47" y2="50.1"/>
				<line class="st0" x1="18" y1="14.1" x2="58" y2="14.1"/>
				<rect x="19" y="34.1" class="st0" width="38" height="4"/>
				<line class="st0" x1="26" y1="24.1" x2="28" y2="24.1"/>
				<line class="st0" x1="30" y1="24.1" x2="32" y2="24.1"/>
				<line class="st0" x1="34" y1="24.1" x2="36" y2="24.1"/>
			</g>
			<path class="st0" d="M4,10.1H1v43.8c0,3.3,2.7,6,6,6c3.3,0,6-2.7,6-6v-45l4.7-5l4.8,5l4.9-5l5,5l5-5l5,5l5-5l5,5l5.3-5l5.3,5v45
				c0,3.3-3.4,6.2-6.7,6.2H7"/>
			<polyline class="st0" points="10,10.1 7,10.1 7,55.1 			"/>
		</g>
	</g>
</g>
<rect class="st1" width="64" height="64"/>
</svg>
