<?xml version="1.0" encoding="utf-8"?>
<!-- Generator: Adobe Illustrator 20.0.0, SVG Export Plug-In . SVG Version: 6.00 Build 0)  -->
<svg version="1.1" id="レイヤー_1" xmlns="http://www.w3.org/2000/svg" xmlns:xlink="http://www.w3.org/1999/xlink" x="0px"
	 y="0px" viewBox="0 0 65 65" style="enable-background:new 0 0 65 65;" xml:space="preserve">
<style type="text/css">
	.st0{fill:none;stroke:#222829;stroke-linejoin:round;stroke-miterlimit:10;}
	.st1{fill:none;stroke:#DDDDDD;stroke-miterlimit:10;}
</style>
<g>
	<g>
		<g>
			<rect x="17" y="23" class="st0" width="31" height="23"/>
			<rect x="26" y="27" class="st0" width="3" height="3"/>
			<rect x="31" y="27" class="st0" width="3" height="3"/>
			<rect x="36" y="27" class="st0" width="3" height="3"/>
			<rect x="41" y="27" class="st0" width="3" height="3"/>
			<rect x="21" y="32" class="st0" width="3" height="3"/>
			<rect x="26" y="32" class="st0" width="3" height="3"/>
			<rect x="31" y="32" class="st0" width="3" height="3"/>
			<rect x="41" y="32" class="st0" width="3" height="3"/>
			<rect x="21" y="37" class="st0" width="3" height="3"/>
			<rect x="31" y="37" class="st0" width="3" height="3"/>
			<rect x="36" y="37" class="st0" width="3" height="3"/>
			<rect x="41" y="37" class="st0" width="3" height="3"/>
			<polyline class="st0" points="17,23 17,19 48,19 48,23 			"/>
			<line class="st0" x1="33.5" y1="21" x2="34.5" y2="21"/>
			<line class="st0" x1="35.5" y1="21" x2="36.5" y2="21"/>
			<line class="st0" x1="37.5" y1="21" x2="38.5" y2="21"/>
			<line class="st0" x1="26.5" y1="21" x2="27.5" y2="21"/>
			<line class="st0" x1="28.5" y1="21" x2="29.5" y2="21"/>
			<line class="st0" x1="30.5" y1="21" x2="31.5" y2="21"/>
			<g>
				<line class="st0" x1="24" y1="27" x2="21" y2="30"/>
				<line class="st0" x1="21" y1="27" x2="24" y2="30"/>
			</g>
			<g>
				<line class="st0" x1="29" y1="37" x2="26" y2="40"/>
				<line class="st0" x1="26" y1="37" x2="29" y2="40"/>
			</g>
			<g>
				<line class="st0" x1="39" y1="32" x2="36" y2="35"/>
				<line class="st0" x1="36" y1="32" x2="39" y2="35"/>
			</g>
			<line class="st0" x1="48" y1="44" x2="17" y2="44"/>
		</g>
	</g>
</g>
<rect x="0.5" y="0.5" class="st1" width="64" height="64"/>
</svg>
