<?xml version="1.0" encoding="utf-8"?>
<!-- Generator: Adobe Illustrator 20.0.0, SVG Export Plug-In . SVG Version: 6.00 Build 0)  -->
<svg version="1.1" id="レイヤー_1" xmlns="http://www.w3.org/2000/svg" xmlns:xlink="http://www.w3.org/1999/xlink" x="0px"
	 y="0px" viewBox="0 0 65 65" style="enable-background:new 0 0 65 65;" xml:space="preserve">
<style type="text/css">
	.st0{fill:none;stroke:#222829;stroke-linejoin:round;stroke-miterlimit:10;}
	.st1{fill:none;stroke:#DDDDDD;stroke-miterlimit:10;}
</style>
<g>
	<g>
		<g>
			<polyline class="st0" points="34.5,19 40,19 40,48 18,48 18,19 23.5,19 			"/>
			<rect x="23.5" y="17" class="st0" width="11" height="5"/>
			<polyline class="st0" points="36,21 37.5,21 37.5,43 20.5,43 20.5,21 22,21 			"/>
			<polyline class="st0" points="32.5,18.5 32.5,20 25.5,20 25.5,18.5 			"/>
		</g>
		<line class="st0" x1="35" y1="25" x2="30" y2="25"/>
		<line class="st0" x1="35" y1="27.5" x2="23" y2="27.5"/>
		<line class="st0" x1="35" y1="29.5" x2="23" y2="29.5"/>
		<line class="st0" x1="35" y1="31.5" x2="23" y2="31.5"/>
		<line class="st0" x1="35" y1="33.5" x2="23" y2="33.5"/>
		<line class="st0" x1="35" y1="35.5" x2="23" y2="35.5"/>
		<line class="st0" x1="30" y1="37.5" x2="23" y2="37.5"/>
		<g>
			<line class="st0" x1="43" y1="34" x2="47" y2="34"/>
			<line class="st0" x1="43" y1="44" x2="47" y2="44"/>
			<line class="st0" x1="45" y1="36.5" x2="45" y2="37.5"/>
			<line class="st0" x1="45" y1="38.5" x2="45" y2="39.5"/>
			<line class="st0" x1="45" y1="40.5" x2="45" y2="41.5"/>
			<polygon class="st0" points="43,19 47,19 47,44 45,48 43,44 			"/>
			<polyline class="st0" points="44,19 44,17 46,17 46,19 			"/>
		</g>
		<line class="st0" x1="18" y1="46" x2="40" y2="46"/>
	</g>
</g>
<rect x="0.5" y="0.5" class="st1" width="64" height="64"/>
</svg>
