<?xml version="1.0" encoding="utf-8"?>
<!-- Generator: Adobe Illustrator 20.0.0, SVG Export Plug-In . SVG Version: 6.00 Build 0)  -->
<svg version="1.1" id="レイヤー_1" xmlns="http://www.w3.org/2000/svg" xmlns:xlink="http://www.w3.org/1999/xlink" x="0px"
	 y="0px" viewBox="0 0 64 64" style="enable-background:new 0 0 64 64;" xml:space="preserve">
<style type="text/css">
	.st0{fill:none;stroke:#AAAAAA;stroke-width:2;stroke-linejoin:round;stroke-miterlimit:10;}
	.st1{fill:none;}
</style>
<g>
	<g>
		<g>
			<rect x="1" y="13" class="st0" width="62" height="46"/>
			<rect x="19" y="21" class="st0" width="6" height="6"/>
			<rect x="29" y="21" class="st0" width="6" height="6"/>
			<rect x="39" y="21" class="st0" width="6" height="6"/>
			<rect x="49" y="21" class="st0" width="6" height="6"/>
			<rect x="9" y="31" class="st0" width="6" height="6"/>
			<rect x="19" y="31" class="st0" width="6" height="6"/>
			<rect x="29" y="31" class="st0" width="6" height="6"/>
			<rect x="49" y="31" class="st0" width="6" height="6"/>
			<rect x="9" y="41" class="st0" width="6" height="6"/>
			<rect x="29" y="41" class="st0" width="6" height="6"/>
			<rect x="39" y="41" class="st0" width="6" height="6"/>
			<rect x="49" y="41" class="st0" width="6" height="6"/>
			<polyline class="st0" points="1,13 1,5 63,5 63,13 			"/>
			<line class="st0" x1="34" y1="9" x2="36" y2="9"/>
			<line class="st0" x1="38" y1="9" x2="40" y2="9"/>
			<line class="st0" x1="42" y1="9" x2="44" y2="9"/>
			<line class="st0" x1="20" y1="9" x2="22" y2="9"/>
			<line class="st0" x1="24" y1="9" x2="26" y2="9"/>
			<line class="st0" x1="28" y1="9" x2="30" y2="9"/>
			<g>
				<line class="st0" x1="15" y1="21" x2="9" y2="27"/>
				<line class="st0" x1="9" y1="21" x2="15" y2="27"/>
			</g>
			<g>
				<line class="st0" x1="25" y1="41" x2="19" y2="47"/>
				<line class="st0" x1="19" y1="41" x2="25" y2="47"/>
			</g>
			<g>
				<line class="st0" x1="45" y1="31" x2="39" y2="37"/>
				<line class="st0" x1="39" y1="31" x2="45" y2="37"/>
			</g>
			<line class="st0" x1="63" y1="55" x2="1" y2="55"/>
		</g>
	</g>
</g>
<rect class="st1" width="64" height="64"/>
</svg>
