<?xml version="1.0" encoding="utf-8"?>
<!-- Generator: Adobe Illustrator 20.0.0, SVG Export Plug-In . SVG Version: 6.00 Build 0)  -->
<svg version="1.1" id="レイヤー_1" xmlns="http://www.w3.org/2000/svg" xmlns:xlink="http://www.w3.org/1999/xlink" x="0px"
	 y="0px" viewBox="0 0 64 64" style="enable-background:new 0 0 64 64;" xml:space="preserve">
<style type="text/css">
	.st0{fill:none;stroke:#000000;stroke-width:2;stroke-linejoin:round;stroke-miterlimit:10;}
	.st1{fill:none;}
</style>
<g>
	<g>
		<g>
			<polyline class="st0" points="36,5 47,5 47,63 3,63 3,5 14,5 			"/>
			<rect x="14" y="1" class="st0" width="22" height="10"/>
			<polyline class="st0" points="39,9 42,9 42,53 8,53 8,9 11,9 			"/>
			<polyline class="st0" points="32,4 32,7 18,7 18,4 			"/>
		</g>
		<line class="st0" x1="37" y1="17" x2="27" y2="17"/>
		<line class="st0" x1="37" y1="22" x2="13" y2="22"/>
		<line class="st0" x1="37" y1="26" x2="13" y2="26"/>
		<line class="st0" x1="37" y1="30" x2="13" y2="30"/>
		<line class="st0" x1="37" y1="34" x2="13" y2="34"/>
		<line class="st0" x1="37" y1="38" x2="13" y2="38"/>
		<line class="st0" x1="27" y1="42" x2="13" y2="42"/>
		<g>
			<line class="st0" x1="53" y1="35" x2="61" y2="35"/>
			<line class="st0" x1="53" y1="55" x2="61" y2="55"/>
			<line class="st0" x1="57" y1="40" x2="57" y2="42"/>
			<line class="st0" x1="57" y1="44" x2="57" y2="46"/>
			<line class="st0" x1="57" y1="48" x2="57" y2="50"/>
			<polygon class="st0" points="53,5 61,5 61,55 57,63 53,55 			"/>
			<polyline class="st0" points="55,5 55,1 59,1 59,5 			"/>
		</g>
		<line class="st0" x1="3" y1="59" x2="47" y2="59"/>
	</g>
</g>
<rect class="st1" width="64" height="64"/>
</svg>
