<?xml version="1.0" encoding="utf-8"?>
<!-- Generator: Adobe Illustrator 20.0.0, SVG Export Plug-In . SVG Version: 6.00 Build 0)  -->
<svg version="1.1" id="レイヤー_1" xmlns="http://www.w3.org/2000/svg" xmlns:xlink="http://www.w3.org/1999/xlink" x="0px"
	 y="0px" viewBox="0 0 65 65" style="enable-background:new 0 0 65 65;" xml:space="preserve">
<style type="text/css">
	.st0{fill:none;stroke:#222829;stroke-miterlimit:10;}
	.st1{fill:none;stroke:#222829;stroke-linejoin:round;stroke-miterlimit:10;}
	.st2{fill:none;stroke:#DDDDDD;stroke-miterlimit:10;}
</style>
<g>
	<g>
		<path class="st0" d="M39.5,28v-6.5c0-2.5-2-4.5-4.5-4.5c-2.5,0-4.5,2-4.5,4.5V28"/>
		<path class="st0" d="M35.5,24v-2.5c0-2.5-2-4.5-4.5-4.5c-2.5,0-4.5,2-4.5,4.5V24"/>
		<line class="st0" x1="38" y1="28" x2="41" y2="28"/>
		<line class="st0" x1="29" y1="28" x2="32" y2="28"/>
		<g>
			<path class="st0" d="M23,39c1.5,0,1.5,2,3,2s1.5-2,3-2c1.5,0,1.5,2,3,2c1.5,0,1.5-2,3-2c1.5,0,1.5,2,3,2c1.5,0,1.5-2,3-2
				c1.5,0,1.5,2,3,2c1.5,0,1.5-2,3-2"/>
		</g>
		<line class="st0" x1="32.5" y1="44" x2="33.5" y2="44"/>
		<line class="st0" x1="34.5" y1="44" x2="35.5" y2="44"/>
		<line class="st0" x1="36.5" y1="44" x2="37.5" y2="44"/>
		<path class="st1" d="M20.5,48h24c1.4,0,2.5-1.1,2.5-2.5V24H23v21.5C23,46.9,21.9,48,20.5,48c-1.4,0-2.5-1.1-2.5-2.5V24h3.5"/>
		<path class="st1" d="M20.5,26.5"/>
		<path class="st1" d="M23,24c0,1.4-1.1,2.5-2.5,2.5c-1.4,0-2.5-1.1-2.5-2.5"/>
		<line class="st1" x1="20.5" y1="29" x2="20.5" y2="45.5"/>
	</g>
</g>
<rect x="0.5" y="0.5" class="st2" width="64" height="64"/>
</svg>
