<?xml version="1.0" encoding="utf-8"?>
<!-- Generator: Adobe Illustrator 20.0.0, SVG Export Plug-In . SVG Version: 6.00 Build 0)  -->
<svg version="1.1" id="レイヤー_1" xmlns="http://www.w3.org/2000/svg" xmlns:xlink="http://www.w3.org/1999/xlink" x="0px"
	 y="0px" viewBox="0 0 64 64" style="enable-background:new 0 0 64 64;" xml:space="preserve">
<style type="text/css">
	.st0{fill:none;stroke:#000000;stroke-width:2;stroke-miterlimit:10;}
	.st1{fill:none;}
</style>
<g>
	<g>
		<line class="st0" x1="11" y1="27" x2="11" y2="16"/>
		<line class="st0" x1="53" y1="16" x2="53" y2="27"/>
		<polyline class="st0" points="49,24 49,7 43,1 15,1 15,24 		"/>
		<line class="st0" x1="20" y1="13" x2="44" y2="13"/>
		<line class="st0" x1="20" y1="17" x2="44" y2="17"/>
		<line class="st0" x1="20" y1="21" x2="44" y2="21"/>
		<polyline class="st0" points="8,31 4,31 4,38 		"/>
		<line class="st0" x1="56" y1="31" x2="60" y2="31"/>
		<line class="st0" x1="60" y1="28" x2="60" y2="34"/>
		<g>
			<line class="st0" x1="45" y1="49" x2="43" y2="49"/>
			<line class="st0" x1="49" y1="49" x2="47" y2="49"/>
			<line class="st0" x1="41" y1="49" x2="39" y2="49"/>
			<line class="st0" x1="25" y1="49" x2="23" y2="49"/>
			<line class="st0" x1="21" y1="49" x2="19" y2="49"/>
			<line class="st0" x1="17" y1="49" x2="15" y2="49"/>
			<line class="st0" x1="37" y1="49" x2="35" y2="49"/>
			<line class="st0" x1="33" y1="49" x2="31" y2="49"/>
			<line class="st0" x1="29" y1="49" x2="27" y2="49"/>
			<line class="st0" x1="43" y1="53" x2="41" y2="53"/>
			<line class="st0" x1="47" y1="53" x2="45" y2="53"/>
			<line class="st0" x1="51" y1="53" x2="49" y2="53"/>
			<line class="st0" x1="39" y1="53" x2="37" y2="53"/>
			<line class="st0" x1="35" y1="53" x2="33" y2="53"/>
			<line class="st0" x1="31" y1="53" x2="29" y2="53"/>
			<line class="st0" x1="27" y1="53" x2="25" y2="53"/>
			<line class="st0" x1="23" y1="53" x2="21" y2="53"/>
			<line class="st0" x1="19" y1="53" x2="17" y2="53"/>
			<line class="st0" x1="15" y1="53" x2="13" y2="53"/>
			<line class="st0" x1="19" y1="57" x2="17" y2="57"/>
			<line class="st0" x1="15" y1="57" x2="13" y2="57"/>
			<line class="st0" x1="13" y1="49" x2="11" y2="49"/>
			<line class="st0" x1="11" y1="53" x2="9" y2="53"/>
			<line class="st0" x1="11" y1="57" x2="9" y2="57"/>
			<line class="st0" x1="51" y1="57" x2="49" y2="57"/>
			<line class="st0" x1="53" y1="49" x2="51" y2="49"/>
			<line class="st0" x1="55" y1="53" x2="53" y2="53"/>
			<line class="st0" x1="55" y1="57" x2="53" y2="57"/>
			<line class="st0" x1="47" y1="57" x2="45" y2="57"/>
			<line class="st0" x1="21" y1="57" x2="43" y2="57"/>
		</g>
		<polyline class="st0" points="49,7 43,7 43,1 		"/>
		<line class="st0" x1="20" y1="7" x2="38" y2="7"/>
		<path class="st0" d="M9,38v2L1,55v6c0,1.1,0.9,2,2,2h58c1.1,0,2-0.9,2-2v-6l-8-15v-2"/>
		<path class="st0" d="M49,38v1c0,2.2-1.8,4-4,4H19c-2.2,0-4-1.8-4-4v-1"/>
		<line class="st0" x1="29" y1="31" x2="27" y2="31"/>
		<line class="st0" x1="33" y1="31" x2="31" y2="31"/>
		<line class="st0" x1="37" y1="31" x2="35" y2="31"/>
		<path class="st0" d="M56,34c0,0.6-0.4,1-1,1H9c-0.6,0-1-0.4-1-1v-6c0-0.6,0.4-1,1-1h46c0.6,0,1,0.4,1,1V34z"/>
		<line class="st0" x1="22" y1="43" x2="22" y2="40"/>
		<line class="st0" x1="26" y1="43" x2="26" y2="40"/>
		<line class="st0" x1="30" y1="43" x2="30" y2="40"/>
		<line class="st0" x1="34" y1="43" x2="34" y2="40"/>
		<line class="st0" x1="38" y1="43" x2="38" y2="40"/>
		<line class="st0" x1="42" y1="43" x2="42" y2="40"/>
		<line class="st0" x1="8" y1="19" x2="15" y2="19"/>
		<line class="st0" x1="49" y1="19" x2="56" y2="19"/>
	</g>
</g>
<rect class="st1" width="64" height="64"/>
</svg>
