<?xml version="1.0" encoding="utf-8"?>
<!-- Generator: Adobe Illustrator 20.0.0, SVG Export Plug-In . SVG Version: 6.00 Build 0)  -->
<svg version="1.1" id="レイヤー_1" xmlns="http://www.w3.org/2000/svg" xmlns:xlink="http://www.w3.org/1999/xlink" x="0px"
	 y="0px" viewBox="0 0 64 64.3" style="enable-background:new 0 0 64 64.3;" xml:space="preserve">
<style type="text/css">
	.st0{fill:none;stroke:#AAAAAA;stroke-width:2;stroke-miterlimit:10;}
	.st1{fill:none;}
</style>
<g>
	<g>
		<g>
			<rect x="18.3" y="6.3" class="st0" width="38" height="52"/>
			<polyline class="st0" points="50.3,58.3 50.3,63.3 13.3,63.3 			"/>
			<rect x="24.3" y="18.3" class="st0" width="11" height="10"/>
			<rect x="39.3" y="18.3" class="st0" width="11" height="10"/>
			<rect x="24.3" y="32.3" class="st0" width="11" height="10"/>
			<rect x="39.3" y="32.3" class="st0" width="11" height="10"/>
			<line class="st0" x1="23.3" y1="12.3" x2="42.3" y2="12.3"/>
			<line class="st0" x1="23.3" y1="48.3" x2="31.3" y2="48.3"/>
			<line class="st0" x1="33.3" y1="48.3" x2="51.3" y2="48.3"/>
			<line class="st0" x1="43.3" y1="52.3" x2="51.3" y2="52.3"/>
			<line class="st0" x1="23.3" y1="52.3" x2="41.3" y2="52.3"/>
			<path class="st0" d="M13,63c-2.8,0-5-2.2-5-5s2.2-5,5-5s5,2.2,5,5"/>
			<path class="st0" d="M8.3,58.3V6c0-2.8,2.1-5,4.9-5s5.1,2.4,5.1,5.2"/>
		</g>
	</g>
</g>
<rect y="0.1" class="st1" width="64" height="64"/>
</svg>
