<?xml version="1.0" encoding="utf-8"?>
<!-- Generator: Adobe Illustrator 20.0.0, SVG Export Plug-In . SVG Version: 6.00 Build 0)  -->
<svg version="1.1" id="レイヤー_1" xmlns="http://www.w3.org/2000/svg" xmlns:xlink="http://www.w3.org/1999/xlink" x="0px"
	 y="0px" viewBox="0 0 65 65" style="enable-background:new 0 0 65 65;" xml:space="preserve">
<style type="text/css">
	.st0{fill:none;stroke:#222829;stroke-miterlimit:10;}
	.st1{fill:none;stroke:#DDDDDD;stroke-miterlimit:10;}
</style>
<g>
	<g>
		<g>
			<rect x="25.3" y="19.2" class="st0" width="19" height="26"/>
			<polyline class="st0" points="41.3,45.7 41.3,48.2 22.8,48.2 			"/>
			<rect x="28.3" y="25.2" class="st0" width="6" height="5"/>
			<rect x="36.3" y="25.2" class="st0" width="5" height="5"/>
			<rect x="28.3" y="32.2" class="st0" width="6" height="5"/>
			<rect x="36.3" y="32.2" class="st0" width="5" height="5"/>
			<line class="st0" x1="27.8" y1="22.2" x2="37.8" y2="22.2"/>
			<line class="st0" x1="27.8" y1="40.2" x2="31.8" y2="40.2"/>
			<line class="st0" x1="32.8" y1="40.2" x2="41.8" y2="40.2"/>
			<line class="st0" x1="37.8" y1="42.2" x2="41.8" y2="42.2"/>
			<line class="st0" x1="27.8" y1="42.2" x2="36.8" y2="42.2"/>
			<path class="st0" d="M23.1,48c-1.4,0-2.5-1.1-2.5-2.5s1.1-2.5,2.5-2.5s2.5,1.1,2.5,2.5"/>
			<path class="st0" d="M20.3,45.7V19.5c0-1.4,1.3-2.5,2.7-2.5s2.4,1.2,2.4,2.6"/>
		</g>
	</g>
</g>
<rect x="0.5" y="0.5" class="st1" width="64" height="64"/>
</svg>
