<?xml version="1.0" encoding="utf-8"?>
<!-- Generator: Adobe Illustrator 20.0.0, SVG Export Plug-In . SVG Version: 6.00 Build 0)  -->
<svg version="1.1" id="レイヤー_1" xmlns="http://www.w3.org/2000/svg" xmlns:xlink="http://www.w3.org/1999/xlink" x="0px"
	 y="0px" viewBox="0 0 80 131.5" style="enable-background:new 0 0 80 131.5;" xml:space="preserve">
<style type="text/css">
	.st0{fill:#FFE700;}
	.st1{fill:#0096DF;}
	.st2{fill:#DA007F;}
	.st3{fill:#231815;}
</style>
<g>
	<path class="st0" d="M14.3,11.8c0,0-9.2-17.8-12.2-9.7c-6.9,18.7,4,36.1,20.6,39.1c0,0,10.6,0.6,11.8-10.8
		C36.5,12.3,14.3,11.8,14.3,11.8z"/>
	<path class="st1" d="M79.6,15.8c-1.3-0.2-17.7-1-20.3-1.2c-4.2-0.4-7-8.4-14.9-8.4c-6.6,0-9,3.3-14.1,9.2
		c-5.9,6.8-10.5,7.8-15.3,8.9C8,26,2,24.2,2,24.2c5.6,13.4,17.3,17.5,27,17.5c6.7,0,15.3-3.6,18.5-7.2c4.7-5.4,5.2-9.1,6.5-12.3
		c1.2-3,2.5-3.9,5.4-5c3.3-1.4,20.5-1.2,20.5-1.2S80,15.8,79.6,15.8z M49.1,14.9c-0.9,0-1.6-0.7-1.6-1.6c0-0.9,0.7-1.6,1.6-1.6
		c0.9,0,1.6,0.7,1.6,1.6C50.7,14.2,49.9,14.9,49.1,14.9z"/>
	<path class="st2" d="M1.5,3.9c0,0-3.4,8.9,0.2,19.3c2.8,8.2,10,15,18.8,17.5c8.2,2.3,12.3-4.2,13.1-5.9c0.6-1.4,1.6-4,0.8-7.7
		c-0.6-2.7-2.4-6.9-10.2-9.3c-9.4-2.9-12.3-4.2-17.9-8.7C3.7,7.1,1.5,3.9,1.5,3.9z"/>
	<path class="st2" d="M2,24.2c0,0,3.5,8.9,13.1,14.3c7.6,4.3,17.5,4.4,25.6,0.4c7.7-3.8,6.3-11.4,5.8-13.1c-0.5-1.5-1.5-4.1-4.6-6.2
		c-2.3-1.6-6.4-3.5-13.8-0.1c-8.9,4.2-11.9,5.2-19.2,5.5C5.8,25.1,2,24.2,2,24.2z"/>
</g>
<g>
	<path class="st3" d="M50.5,90.7c-4.7-2.9-9-7.7-11.3-11.4c-2.6-4-4.1-8.7-4.5-14.2l1.7-0.7c0.5-0.2,0.7-0.4,0.7-0.6
		c0-0.3-0.8-1-2.4-2c-0.4-0.2-0.8-0.2-1,0.1l-1.6,1.5h-8.9h-1.4c-0.2,0-0.4,0.1-0.4,0.3v0.1c0,0.2,0.2,0.3,0.4,0.3h6.1
		c2.2,0,4.5,0,5.3,0h0.3c0.7,11.3,5.8,22.8,14.6,28.7c0.4,0.2,0.8,0.2,1-0.1c0.4-0.5,0.9-0.8,1.3-1.2C50.8,91.3,50.9,91,50.5,90.7z"
		/>
	<path class="st3" d="M22.5,70.7c1.3-0.3,2-0.6,2-0.9c0-0.5,0.1-1-2.6-1.5c-0.5-0.1-0.9,0.1-0.9,0.5c-0.6,4.1-1.6,7.5-2.9,10.5
		c-2,4.5-5.1,8.4-9.3,11.5c-0.4,0.3-0.1,0.6,0.2,0.4c4-2.5,6.1-4.5,8.2-7.6C19.5,80.3,21.2,76,22.5,70.7z"/>
	<circle class="st3" cx="21.5" cy="125" r="1.9"/>
	<circle class="st3" cx="28.1" cy="125" r="1.9"/>
	<path class="st3" d="M48.4,114.3H19.6v-3.2h19c0.4,0,0.6-0.3,0.6-0.6v-7.1l0.8-0.6c0.2-0.2,0.3-0.4,0.3-0.5c0-0.3-0.6-0.9-1.8-1.9
		c-0.3-0.3-0.7-0.2-0.9,0.1l-1,1.3H26.2h-1.4h-5c-0.5-0.3-1.2-0.5-1.9-0.9c-0.4-0.2-0.7,0-0.7,0.5v19c0,0.4,0.2,0.6,0.6,0.6H19
		c0.4,0,0.6-0.2,0.6-0.6v-5h28.8c0.2,0,0.4-0.2,0.4-0.3v-0.2C48.8,114.5,48.6,114.3,48.4,114.3z M19.6,102.7H37v3.2H19.6V102.7z
		 M19.6,106.8H37v3.4H19.6V106.8z"/>
	<circle class="st3" cx="28.1" cy="96.7" r="2.1"/>
	<circle class="st3" cx="34.1" cy="125" r="1.9"/>
	<path class="st3" d="M46.4,117.2c-0.3-0.3-0.6-0.2-0.9,0.1l-1.1,1.2H27.8h-4c-0.2,0-0.4,0.2-0.4,0.4v0.1c0,0.2,0.2,0.4,0.4,0.4h4
		h16.9c-0.1,3.1-0.5,5.5-1.2,7.3c-0.5,1.2-1.3,1.8-2.5,1.8c-1.4,0-3-0.1-4.7-0.4c-0.4-0.1-0.7,0.1-0.7,0.4c0,0.3,0.2,0.6,0.5,0.7
		c1.8,0.4,3,0.7,3.6,1c0.4,0.2,0.7,0.5,0.8,0.9c0.2,0.3,0.3,0.5,0.7,0.5c1-0.1,1.9-0.3,2.6-0.9c1.7-1.2,2.8-4.8,3.1-10.5l0.9-0.7
		c0.2-0.2,0.3-0.3,0.3-0.5C48.2,118.7,47.6,118.1,46.4,117.2z"/>
	<path class="st3" d="M7.5,124.7c-0.9,0.1-2.1,1.2-1.5,2.6c0.6,1.4,2,1.4,2.6,1.2c2.1-0.8,6.3-5.3,6.3-5.3s-2.1,0.7-3.8,1.1
		C9.4,124.6,8.5,124.5,7.5,124.7z"/>
</g>
</svg>
